G04*
G04 #@! TF.GenerationSoftware,Altium Limited,Altium Designer,18.1.1 (9)*
G04*
G04 Layer_Physical_Order=2*
G04 Layer_Color=16711680*
%FSLAX42Y42*%
%MOMM*%
G71*
G01*
G75*
%ADD32C,1.20*%
%ADD55C,0.25*%
%ADD56C,0.50*%
%ADD59C,0.80*%
%ADD60C,1.25*%
%ADD61C,2.70*%
%ADD62C,1.10*%
%ADD63O,3.00X1.50*%
G36*
X6969Y31D02*
X31D01*
Y2469D01*
X6969D01*
Y31D01*
D02*
G37*
%LPC*%
G36*
X1950Y2308D02*
X1928Y2305D01*
X1908Y2297D01*
X1891Y2284D01*
X1881Y2271D01*
X1866D01*
X1848Y2267D01*
X1833Y2257D01*
X1291Y1716D01*
X1275Y1718D01*
X1253Y1715D01*
X1233Y1707D01*
X1216Y1693D01*
X1203Y1676D01*
X1195Y1656D01*
X1192Y1634D01*
X1194Y1618D01*
X468Y892D01*
X458Y877D01*
X454Y860D01*
Y675D01*
X429Y674D01*
X428Y680D01*
X427Y691D01*
X417Y716D01*
X401Y737D01*
X380Y753D01*
X355Y763D01*
X329Y766D01*
X267D01*
Y665D01*
Y564D01*
X329D01*
X355Y567D01*
X380Y577D01*
X401Y593D01*
X417Y614D01*
X427Y639D01*
X428Y650D01*
X429Y656D01*
X454Y655D01*
Y375D01*
X458Y357D01*
X468Y343D01*
X573Y238D01*
X575Y236D01*
X578Y228D01*
X591Y211D01*
X608Y198D01*
X628Y190D01*
X650Y187D01*
X672Y190D01*
X692Y198D01*
X709Y211D01*
X722Y228D01*
X730Y248D01*
X733Y270D01*
X730Y292D01*
X722Y312D01*
X709Y329D01*
X692Y342D01*
X672Y350D01*
X650Y353D01*
X628Y350D01*
X608Y342D01*
X602Y337D01*
X546Y394D01*
Y840D01*
X1259Y1553D01*
X1275Y1551D01*
X1297Y1554D01*
X1317Y1562D01*
X1334Y1576D01*
X1347Y1593D01*
X1355Y1613D01*
X1358Y1634D01*
X1356Y1651D01*
X1873Y2167D01*
X1891Y2166D01*
X1908Y2153D01*
X1928Y2145D01*
X1950Y2142D01*
X1972Y2145D01*
X1992Y2153D01*
X2009Y2166D01*
X2022Y2183D01*
X2030Y2203D01*
X2033Y2225D01*
X2030Y2247D01*
X2022Y2267D01*
X2009Y2284D01*
X1992Y2297D01*
X1972Y2305D01*
X1950Y2308D01*
D02*
G37*
G36*
X3238Y2251D02*
X3218Y2248D01*
X3200Y2241D01*
X3185Y2228D01*
X3172Y2213D01*
X3165Y2195D01*
X3162Y2175D01*
X3165Y2155D01*
X3172Y2137D01*
X3185Y2122D01*
X3200Y2109D01*
X3218Y2102D01*
X3238Y2099D01*
X3258Y2102D01*
X3276Y2109D01*
X3291Y2122D01*
X3304Y2137D01*
X3311Y2155D01*
X3314Y2175D01*
X3311Y2195D01*
X3304Y2213D01*
X3291Y2228D01*
X3276Y2241D01*
X3258Y2248D01*
X3238Y2251D01*
D02*
G37*
G36*
X2750D02*
X2730Y2248D01*
X2712Y2241D01*
X2697Y2228D01*
X2684Y2213D01*
X2677Y2195D01*
X2674Y2175D01*
X2677Y2155D01*
X2684Y2137D01*
X2697Y2122D01*
X2712Y2109D01*
X2730Y2102D01*
X2750Y2099D01*
X2770Y2102D01*
X2788Y2109D01*
X2803Y2122D01*
X2816Y2137D01*
X2823Y2155D01*
X2826Y2175D01*
X2823Y2195D01*
X2816Y2213D01*
X2803Y2228D01*
X2788Y2241D01*
X2770Y2248D01*
X2750Y2251D01*
D02*
G37*
G36*
X329Y1936D02*
X267D01*
Y1848D01*
X429D01*
X427Y1861D01*
X417Y1886D01*
X401Y1907D01*
X380Y1923D01*
X355Y1933D01*
X329Y1936D01*
D02*
G37*
G36*
X241D02*
X179D01*
X153Y1933D01*
X128Y1923D01*
X107Y1907D01*
X91Y1886D01*
X81Y1861D01*
X79Y1848D01*
X241D01*
Y1936D01*
D02*
G37*
G36*
X429Y1822D02*
X267D01*
Y1734D01*
X329D01*
X355Y1737D01*
X380Y1747D01*
X401Y1763D01*
X417Y1784D01*
X427Y1809D01*
X429Y1822D01*
D02*
G37*
G36*
X241D02*
X79D01*
X81Y1809D01*
X91Y1784D01*
X107Y1763D01*
X128Y1747D01*
X153Y1737D01*
X179Y1734D01*
X241D01*
Y1822D01*
D02*
G37*
G36*
X4400Y2333D02*
X4378Y2330D01*
X4358Y2322D01*
X4341Y2309D01*
X4328Y2292D01*
X4320Y2272D01*
X4317Y2250D01*
X4320Y2228D01*
X4323Y2220D01*
X4291Y2188D01*
X3755D01*
X3742Y2186D01*
X3732Y2178D01*
X3111Y1558D01*
X2376D01*
X2372Y1567D01*
X2359Y1584D01*
X2342Y1597D01*
X2322Y1605D01*
X2300Y1608D01*
X2278Y1605D01*
X2258Y1597D01*
X2241Y1584D01*
X2228Y1567D01*
X2223Y1555D01*
X2202Y1545D01*
X2194Y1545D01*
X2192Y1547D01*
X2172Y1555D01*
X2150Y1558D01*
X2128Y1555D01*
X2108Y1547D01*
X2091Y1534D01*
X2083Y1523D01*
X2058Y1532D01*
Y1561D01*
X2234Y1737D01*
X2884D01*
X2888Y1728D01*
X2901Y1711D01*
X2918Y1698D01*
X2938Y1690D01*
X2960Y1687D01*
X2982Y1690D01*
X3002Y1698D01*
X3019Y1711D01*
X3032Y1728D01*
X3040Y1748D01*
X3043Y1770D01*
X3040Y1792D01*
X3032Y1812D01*
X3019Y1829D01*
X3002Y1842D01*
X2982Y1850D01*
X2960Y1853D01*
X2938Y1850D01*
X2918Y1842D01*
X2901Y1829D01*
X2888Y1812D01*
X2884Y1803D01*
X2220D01*
X2207Y1801D01*
X2197Y1793D01*
X2002Y1598D01*
X1994Y1588D01*
X1992Y1575D01*
Y1134D01*
X1991Y1134D01*
X1978Y1117D01*
X1970Y1097D01*
X1967Y1075D01*
X1970Y1053D01*
X1978Y1033D01*
X1991Y1016D01*
X2008Y1003D01*
X2028Y995D01*
X2050Y992D01*
X2072Y995D01*
X2092Y1003D01*
X2092Y1003D01*
X2106Y999D01*
X2118Y991D01*
X2119Y983D01*
X2127Y972D01*
X2147Y952D01*
Y656D01*
X2125Y633D01*
X2103Y630D01*
X2083Y622D01*
X2066Y609D01*
X2053Y592D01*
X2045Y572D01*
X2042Y550D01*
X2045Y528D01*
X2053Y508D01*
X2066Y491D01*
X2083Y478D01*
X2103Y470D01*
X2125Y467D01*
X2147Y470D01*
X2167Y478D01*
X2184Y491D01*
X2197Y508D01*
X2205Y528D01*
X2208Y550D01*
X2205Y572D01*
X2202Y580D01*
X2203Y582D01*
X2211Y592D01*
X2213Y605D01*
Y966D01*
X2211Y978D01*
X2203Y989D01*
X2183Y1009D01*
Y1321D01*
X2195Y1326D01*
X2208Y1327D01*
X2219Y1314D01*
X2236Y1300D01*
X2256Y1292D01*
X2277Y1289D01*
X2299Y1292D01*
X2309Y1296D01*
X2312Y1294D01*
X2325Y1292D01*
X3000D01*
X3013Y1294D01*
X3023Y1302D01*
X3799Y2077D01*
X4933D01*
X4941Y2066D01*
X4952Y2058D01*
X4943Y2033D01*
X3900D01*
X3887Y2031D01*
X3877Y2023D01*
X2711Y858D01*
X2684D01*
X2672Y883D01*
X2672Y883D01*
X2680Y903D01*
X2683Y925D01*
X2680Y947D01*
X2672Y967D01*
X2659Y984D01*
X2642Y997D01*
X2622Y1005D01*
X2600Y1008D01*
X2578Y1005D01*
X2558Y997D01*
X2541Y984D01*
X2528Y967D01*
X2524Y958D01*
X2512Y956D01*
X2502Y948D01*
X2377Y823D01*
X2369Y813D01*
X2367Y800D01*
Y425D01*
X2369Y412D01*
X2377Y402D01*
X2527Y252D01*
X2537Y244D01*
X2550Y242D01*
X2675D01*
X2688Y244D01*
X2698Y252D01*
X2773Y327D01*
X2781Y337D01*
X2783Y350D01*
Y511D01*
X3373Y1102D01*
X3373Y1102D01*
X4094Y1822D01*
X5056D01*
X5352Y1527D01*
X5352Y1527D01*
X5873Y1005D01*
X5870Y997D01*
X5867Y975D01*
X5870Y953D01*
X5878Y933D01*
X5891Y916D01*
X5908Y903D01*
X5928Y895D01*
X5950Y892D01*
X5972Y895D01*
X5992Y903D01*
X6009Y916D01*
X6022Y933D01*
X6030Y953D01*
X6033Y975D01*
X6030Y997D01*
X6022Y1017D01*
X6009Y1034D01*
X5992Y1047D01*
X5972Y1055D01*
X5950Y1058D01*
X5928Y1055D01*
X5920Y1052D01*
X5398Y1573D01*
X5123Y1849D01*
X5132Y1872D01*
X5206D01*
X5873Y1205D01*
X5870Y1197D01*
X5867Y1175D01*
X5870Y1153D01*
X5878Y1133D01*
X5891Y1116D01*
X5908Y1103D01*
X5928Y1095D01*
X5950Y1092D01*
X5972Y1095D01*
X5992Y1103D01*
X6009Y1116D01*
X6022Y1133D01*
X6030Y1153D01*
X6033Y1175D01*
X6030Y1197D01*
X6022Y1217D01*
X6009Y1234D01*
X5992Y1247D01*
X5972Y1255D01*
X5950Y1258D01*
X5928Y1255D01*
X5920Y1252D01*
X5278Y1894D01*
X5287Y1917D01*
X5336D01*
X5868Y1385D01*
X5867Y1375D01*
X5870Y1353D01*
X5878Y1333D01*
X5891Y1316D01*
X5908Y1303D01*
X5928Y1295D01*
X5950Y1292D01*
X5972Y1295D01*
X5992Y1303D01*
X6009Y1316D01*
X6022Y1333D01*
X6030Y1353D01*
X6033Y1375D01*
X6030Y1397D01*
X6022Y1417D01*
X6009Y1434D01*
X5992Y1447D01*
X5972Y1455D01*
X5950Y1458D01*
X5928Y1455D01*
X5908Y1447D01*
X5904Y1443D01*
X5403Y1944D01*
X5413Y1967D01*
X5511D01*
X5873Y1605D01*
X5870Y1597D01*
X5867Y1575D01*
X5870Y1553D01*
X5878Y1533D01*
X5891Y1516D01*
X5908Y1503D01*
X5928Y1495D01*
X5950Y1492D01*
X5972Y1495D01*
X5992Y1503D01*
X6009Y1516D01*
X6022Y1533D01*
X6030Y1553D01*
X6033Y1575D01*
X6030Y1597D01*
X6022Y1617D01*
X6009Y1634D01*
X5992Y1647D01*
X5972Y1655D01*
X5950Y1658D01*
X5928Y1655D01*
X5920Y1652D01*
X5548Y2023D01*
X5538Y2031D01*
X5525Y2033D01*
X5057D01*
X5048Y2058D01*
X5059Y2066D01*
X5072Y2083D01*
X5080Y2103D01*
X5083Y2125D01*
X5080Y2147D01*
X5072Y2167D01*
X5059Y2184D01*
X5042Y2197D01*
X5022Y2205D01*
X5000Y2208D01*
X4978Y2205D01*
X4958Y2197D01*
X4941Y2184D01*
X4928Y2167D01*
X4920Y2147D01*
X4919Y2143D01*
X4412D01*
X4410Y2168D01*
X4422Y2170D01*
X4442Y2178D01*
X4459Y2191D01*
X4472Y2208D01*
X4480Y2228D01*
X4483Y2250D01*
X4480Y2272D01*
X4472Y2292D01*
X4459Y2309D01*
X4442Y2322D01*
X4422Y2330D01*
X4400Y2333D01*
D02*
G37*
G36*
X254Y1556D02*
X233Y1553D01*
X214Y1545D01*
X197Y1532D01*
X184Y1515D01*
X176Y1496D01*
X173Y1475D01*
X176Y1454D01*
X184Y1435D01*
X197Y1418D01*
X214Y1405D01*
X233Y1397D01*
X254Y1394D01*
X275Y1397D01*
X294Y1405D01*
X311Y1418D01*
X324Y1435D01*
X332Y1454D01*
X335Y1475D01*
X332Y1496D01*
X324Y1515D01*
X311Y1532D01*
X294Y1545D01*
X275Y1553D01*
X254Y1556D01*
D02*
G37*
G36*
X6500Y1406D02*
X6470Y1403D01*
X6440Y1394D01*
X6413Y1380D01*
X6390Y1360D01*
X6370Y1337D01*
X6356Y1310D01*
X6347Y1280D01*
X6344Y1250D01*
X6347Y1220D01*
X6356Y1190D01*
X6370Y1163D01*
X6390Y1140D01*
X6413Y1120D01*
X6440Y1106D01*
X6470Y1097D01*
X6500Y1094D01*
X6530Y1097D01*
X6560Y1106D01*
X6587Y1120D01*
X6610Y1140D01*
X6630Y1163D01*
X6644Y1190D01*
X6653Y1220D01*
X6656Y1250D01*
X6653Y1280D01*
X6644Y1310D01*
X6630Y1337D01*
X6610Y1360D01*
X6587Y1380D01*
X6560Y1394D01*
X6530Y1403D01*
X6500Y1406D01*
D02*
G37*
G36*
X254Y1106D02*
X233Y1103D01*
X214Y1095D01*
X197Y1082D01*
X184Y1065D01*
X176Y1046D01*
X173Y1025D01*
X176Y1004D01*
X184Y985D01*
X197Y968D01*
X214Y955D01*
X233Y947D01*
X254Y944D01*
X275Y947D01*
X294Y955D01*
X311Y968D01*
X324Y985D01*
X332Y1004D01*
X335Y1025D01*
X332Y1046D01*
X324Y1065D01*
X311Y1082D01*
X294Y1095D01*
X275Y1103D01*
X254Y1106D01*
D02*
G37*
G36*
X241Y766D02*
X179D01*
X153Y763D01*
X128Y753D01*
X107Y737D01*
X91Y716D01*
X81Y691D01*
X79Y678D01*
X241D01*
Y766D01*
D02*
G37*
G36*
Y652D02*
X79D01*
X81Y639D01*
X91Y614D01*
X107Y593D01*
X128Y577D01*
X153Y567D01*
X179Y564D01*
X241D01*
Y652D01*
D02*
G37*
%LPD*%
G36*
X3097Y1469D02*
X2986Y1358D01*
X2373D01*
X2361Y1373D01*
X2358Y1394D01*
X2350Y1414D01*
X2341Y1426D01*
X2341Y1445D01*
X2345Y1456D01*
X2359Y1466D01*
X2372Y1483D01*
X2376Y1492D01*
X3087D01*
X3097Y1469D01*
D02*
G37*
D32*
X254Y1025D02*
D03*
Y1475D02*
D03*
D55*
X2150Y996D02*
X2180Y966D01*
X2150Y996D02*
Y1475D01*
X2180Y605D02*
Y966D01*
X2125Y550D02*
X2180Y605D01*
X2025Y1100D02*
Y1575D01*
Y1100D02*
X2050Y1075D01*
X3000Y1325D02*
X3785Y2110D01*
X2325Y1325D02*
X3000D01*
X2277Y1373D02*
X2325Y1325D01*
X2025Y1575D02*
X2220Y1770D01*
X2960D01*
X3125Y1525D02*
X3755Y2155D01*
X4305D02*
X4400Y2250D01*
X3755Y2155D02*
X4305D01*
X3785Y2110D02*
X4985D01*
X5000Y2125D01*
X5525Y2000D02*
X5950Y1575D01*
X3900Y2000D02*
X5525D01*
X2725Y825D02*
X3900Y2000D01*
X2300Y1525D02*
X3125D01*
X2600Y575D02*
X2625Y550D01*
X5220Y1905D02*
X5950Y1175D01*
X4030Y1905D02*
X5220D01*
X5350Y1950D02*
X5925Y1375D01*
X2750Y725D02*
X3975Y1950D01*
X2675Y550D02*
X4030Y1905D01*
X3975Y1950D02*
X5350D01*
X5070Y1855D02*
X5375Y1550D01*
X4080Y1855D02*
X5070D01*
X3350Y1125D02*
X4080Y1855D01*
X2566Y825D02*
X2725D01*
X2625Y550D02*
X2675D01*
X2475Y525D02*
Y734D01*
X2566Y825D01*
X2600Y725D02*
X2750D01*
X2750Y525D02*
X3350Y1125D01*
X2750Y350D02*
Y525D01*
X2675Y275D02*
X2750Y350D01*
X2550Y275D02*
X2675D01*
X2400Y425D02*
X2550Y275D01*
X2400Y425D02*
Y800D01*
X2475Y525D02*
X2600Y400D01*
X2525Y925D02*
X2600D01*
X2600Y550D02*
Y575D01*
X2400Y800D02*
X2525Y925D01*
X5375Y1550D02*
X5950Y975D01*
X5375Y1550D02*
X5375D01*
X5925Y1375D02*
X5950D01*
D56*
X605Y270D02*
X650D01*
X500Y375D02*
X605Y270D01*
X500Y375D02*
Y860D01*
X1275Y1634D01*
X1866Y2225D02*
X1950D01*
X1275Y1634D02*
X1866Y2225D01*
D59*
X7200Y-200D02*
D03*
X-200D02*
D03*
X7200Y2700D02*
D03*
X-200D02*
D03*
D60*
X2960Y1770D02*
D03*
X2060Y700D02*
D03*
X2250Y1030D02*
D03*
X2050Y1075D02*
D03*
X2150Y1475D02*
D03*
X5000Y2125D02*
D03*
X2277Y1373D02*
D03*
X2300Y1525D02*
D03*
X2950Y480D02*
D03*
X2600Y725D02*
D03*
Y925D02*
D03*
X2600Y550D02*
D03*
Y400D02*
D03*
X5600D02*
D03*
X3580Y190D02*
D03*
X1640Y1670D02*
D03*
X2650Y1425D02*
D03*
X650Y525D02*
D03*
X800Y875D02*
D03*
X2250Y1225D02*
D03*
X1875Y1300D02*
D03*
X3500Y2100D02*
D03*
X5100Y350D02*
D03*
Y650D02*
D03*
X2575Y2125D02*
D03*
X3400Y2300D02*
D03*
X3075Y2175D02*
D03*
X2900D02*
D03*
X2825Y100D02*
D03*
X2550D02*
D03*
X2100D02*
D03*
X500D02*
D03*
X200D02*
D03*
Y400D02*
D03*
Y2100D02*
D03*
X500D02*
D03*
X800D02*
D03*
Y2300D02*
D03*
X500D02*
D03*
X200D02*
D03*
X6500Y350D02*
D03*
X6750Y450D02*
D03*
X6900Y700D02*
D03*
Y550D02*
D03*
X4150Y2250D02*
D03*
X4400D02*
D03*
X4650D02*
D03*
X4900D02*
D03*
X5150D02*
D03*
X5400D02*
D03*
X5650D02*
D03*
X5900D02*
D03*
Y2000D02*
D03*
X6150Y2250D02*
D03*
X6400D02*
D03*
X6650D02*
D03*
X6900D02*
D03*
Y2000D02*
D03*
X6650D02*
D03*
X6400D02*
D03*
X6150D02*
D03*
X6900Y1750D02*
D03*
X6650D02*
D03*
X6400D02*
D03*
X6150D02*
D03*
X5200Y750D02*
D03*
Y450D02*
D03*
Y600D02*
D03*
Y300D02*
D03*
X5600Y750D02*
D03*
X6600Y700D02*
D03*
X6500Y550D02*
D03*
X6350Y450D02*
D03*
X6200Y400D02*
D03*
X6050D02*
D03*
X5900D02*
D03*
X5750D02*
D03*
X6200Y750D02*
D03*
X6050D02*
D03*
X5900D02*
D03*
X5750D02*
D03*
X6900Y200D02*
D03*
X6600D02*
D03*
X6300D02*
D03*
X6000D02*
D03*
X5700D02*
D03*
X3380Y190D02*
D03*
X5400Y200D02*
D03*
X5100D02*
D03*
X4700D02*
D03*
X4300D02*
D03*
X3900D02*
D03*
X5100Y500D02*
D03*
X4700D02*
D03*
X4300D02*
D03*
X3900D02*
D03*
X5100Y800D02*
D03*
X4700D02*
D03*
X4300D02*
D03*
X3900D02*
D03*
X5100Y1100D02*
D03*
X4700D02*
D03*
X4300D02*
D03*
X3900D02*
D03*
X5100Y1400D02*
D03*
X4700D02*
D03*
X4300D02*
D03*
X3900D02*
D03*
X1475Y1000D02*
D03*
X1275Y1634D02*
D03*
X1950Y2225D02*
D03*
X5950Y975D02*
D03*
Y1175D02*
D03*
Y1375D02*
D03*
Y1575D02*
D03*
X650Y270D02*
D03*
X2125Y550D02*
D03*
D61*
X6755Y995D02*
D03*
X6245Y1505D02*
D03*
X6755D02*
D03*
X6245Y995D02*
D03*
X6500Y1250D02*
D03*
D62*
X3238Y2175D02*
D03*
X2750D02*
D03*
D63*
X254Y665D02*
D03*
Y1835D02*
D03*
M02*
