G04 Layer_Physical_Order=2*
G04 Layer_Color=16711680*
%FSLAX42Y42*%
%MOMM*%
G71*
G01*
G75*
%ADD28C,0.25*%
%ADD29C,0.50*%
%ADD31C,2.70*%
%ADD32C,1.10*%
%ADD33C,1.50*%
%ADD34O,3.00X1.50*%
%ADD35C,1.25*%
G36*
X6969Y31D02*
X31D01*
Y2469D01*
X6969D01*
Y31D01*
D02*
G37*
%LPC*%
G36*
X6258Y1155D02*
Y1008D01*
X6405D01*
X6403Y1026D01*
X6394Y1057D01*
X6379Y1085D01*
X6359Y1109D01*
X6335Y1129D01*
X6307Y1144D01*
X6276Y1153D01*
X6258Y1155D01*
D02*
G37*
G36*
X6232D02*
X6214Y1153D01*
X6183Y1144D01*
X6155Y1129D01*
X6131Y1109D01*
X6111Y1085D01*
X6096Y1057D01*
X6087Y1026D01*
X6085Y1008D01*
X6232D01*
Y1155D01*
D02*
G37*
G36*
X254Y1121D02*
X229Y1118D01*
X206Y1108D01*
X186Y1093D01*
X171Y1073D01*
X161Y1050D01*
X158Y1025D01*
X161Y1000D01*
X171Y977D01*
X186Y957D01*
X206Y942D01*
X229Y932D01*
X254Y929D01*
X279Y932D01*
X302Y942D01*
X322Y957D01*
X337Y977D01*
X347Y1000D01*
X350Y1025D01*
X347Y1050D01*
X337Y1073D01*
X322Y1093D01*
X302Y1108D01*
X279Y1118D01*
X254Y1121D01*
D02*
G37*
G36*
X6500Y1406D02*
X6470Y1403D01*
X6440Y1394D01*
X6413Y1380D01*
X6390Y1360D01*
X6370Y1337D01*
X6356Y1310D01*
X6347Y1280D01*
X6344Y1250D01*
X6347Y1220D01*
X6356Y1190D01*
X6370Y1163D01*
X6390Y1140D01*
X6413Y1120D01*
X6440Y1106D01*
X6470Y1097D01*
X6500Y1094D01*
X6530Y1097D01*
X6560Y1106D01*
X6587Y1120D01*
X6610Y1140D01*
X6630Y1163D01*
X6644Y1190D01*
X6653Y1220D01*
X6656Y1250D01*
X6653Y1280D01*
X6644Y1310D01*
X6630Y1337D01*
X6610Y1360D01*
X6587Y1380D01*
X6560Y1394D01*
X6530Y1403D01*
X6500Y1406D01*
D02*
G37*
G36*
X6768Y1155D02*
Y1008D01*
X6915D01*
X6913Y1026D01*
X6904Y1057D01*
X6889Y1085D01*
X6869Y1109D01*
X6845Y1129D01*
X6817Y1144D01*
X6786Y1153D01*
X6768Y1155D01*
D02*
G37*
G36*
X6742D02*
X6724Y1153D01*
X6693Y1144D01*
X6665Y1129D01*
X6641Y1109D01*
X6621Y1085D01*
X6606Y1057D01*
X6597Y1026D01*
X6595Y1008D01*
X6742D01*
Y1155D01*
D02*
G37*
G36*
X6232Y982D02*
X6085D01*
X6087Y964D01*
X6096Y933D01*
X6111Y905D01*
X6131Y881D01*
X6155Y861D01*
X6183Y846D01*
X6214Y837D01*
X6232Y835D01*
Y982D01*
D02*
G37*
G36*
X329Y761D02*
X179D01*
X154Y758D01*
X131Y748D01*
X111Y733D01*
X96Y713D01*
X86Y690D01*
X83Y665D01*
X86Y640D01*
X96Y617D01*
X111Y597D01*
X131Y582D01*
X154Y572D01*
X179Y569D01*
X329D01*
X354Y572D01*
X377Y582D01*
X397Y597D01*
X412Y617D01*
X422Y640D01*
X425Y665D01*
X422Y690D01*
X412Y713D01*
X397Y733D01*
X377Y748D01*
X354Y758D01*
X329Y761D01*
D02*
G37*
G36*
X2125Y1583D02*
X2103Y1580D01*
X2083Y1572D01*
X2066Y1559D01*
X2053Y1542D01*
X2045Y1522D01*
X2042Y1500D01*
X2045Y1478D01*
X2053Y1458D01*
X2066Y1441D01*
X2083Y1428D01*
X2092Y1424D01*
Y626D01*
X2083Y622D01*
X2066Y609D01*
X2053Y592D01*
X2045Y572D01*
X2042Y550D01*
X2045Y528D01*
X2053Y508D01*
X2066Y491D01*
X2083Y478D01*
X2103Y470D01*
X2125Y467D01*
X2147Y470D01*
X2167Y478D01*
X2184Y491D01*
X2197Y508D01*
X2205Y528D01*
X2208Y550D01*
X2205Y572D01*
X2197Y592D01*
X2184Y609D01*
X2167Y622D01*
X2158Y626D01*
Y1424D01*
X2167Y1428D01*
X2184Y1441D01*
X2197Y1458D01*
X2205Y1478D01*
X2208Y1500D01*
X2205Y1522D01*
X2197Y1542D01*
X2184Y1559D01*
X2167Y1572D01*
X2147Y1580D01*
X2125Y1583D01*
D02*
G37*
G36*
X6915Y982D02*
X6768D01*
Y835D01*
X6786Y837D01*
X6817Y846D01*
X6845Y861D01*
X6869Y881D01*
X6889Y905D01*
X6904Y933D01*
X6913Y964D01*
X6915Y982D01*
D02*
G37*
G36*
X6742D02*
X6595D01*
X6597Y964D01*
X6606Y933D01*
X6621Y905D01*
X6641Y881D01*
X6665Y861D01*
X6693Y846D01*
X6724Y837D01*
X6742Y835D01*
Y982D01*
D02*
G37*
G36*
X6405D02*
X6258D01*
Y835D01*
X6276Y837D01*
X6307Y846D01*
X6335Y861D01*
X6359Y881D01*
X6379Y905D01*
X6394Y933D01*
X6403Y964D01*
X6405Y982D01*
D02*
G37*
G36*
X6232Y1492D02*
X6085D01*
X6087Y1474D01*
X6096Y1443D01*
X6111Y1415D01*
X6131Y1391D01*
X6155Y1371D01*
X6183Y1356D01*
X6214Y1347D01*
X6232Y1345D01*
Y1492D01*
D02*
G37*
G36*
X329Y1931D02*
X179D01*
X154Y1928D01*
X131Y1918D01*
X111Y1903D01*
X96Y1883D01*
X86Y1860D01*
X83Y1835D01*
X86Y1810D01*
X96Y1787D01*
X111Y1767D01*
X131Y1752D01*
X154Y1742D01*
X179Y1739D01*
X329D01*
X354Y1742D01*
X377Y1752D01*
X397Y1767D01*
X412Y1787D01*
X422Y1810D01*
X425Y1835D01*
X422Y1860D01*
X412Y1883D01*
X397Y1903D01*
X377Y1918D01*
X354Y1928D01*
X329Y1931D01*
D02*
G37*
G36*
X6768Y1665D02*
Y1518D01*
X6915D01*
X6913Y1536D01*
X6904Y1567D01*
X6889Y1595D01*
X6869Y1619D01*
X6845Y1639D01*
X6817Y1654D01*
X6786Y1663D01*
X6768Y1665D01*
D02*
G37*
G36*
X6742D02*
X6724Y1663D01*
X6693Y1654D01*
X6665Y1639D01*
X6641Y1619D01*
X6621Y1595D01*
X6606Y1567D01*
X6597Y1536D01*
X6595Y1518D01*
X6742D01*
Y1665D01*
D02*
G37*
G36*
X1950Y2308D02*
X1928Y2305D01*
X1908Y2297D01*
X1891Y2284D01*
X1881Y2271D01*
X1866D01*
X1848Y2267D01*
X1833Y2257D01*
X1291Y1716D01*
X1275Y1718D01*
X1253Y1715D01*
X1233Y1707D01*
X1216Y1693D01*
X1203Y1676D01*
X1195Y1656D01*
X1192Y1634D01*
X1194Y1618D01*
X468Y892D01*
X458Y877D01*
X454Y860D01*
Y375D01*
X458Y357D01*
X468Y343D01*
X573Y238D01*
X575Y236D01*
X578Y228D01*
X591Y211D01*
X608Y198D01*
X628Y190D01*
X650Y187D01*
X672Y190D01*
X692Y198D01*
X709Y211D01*
X722Y228D01*
X730Y248D01*
X733Y270D01*
X730Y292D01*
X722Y312D01*
X709Y329D01*
X692Y342D01*
X672Y350D01*
X650Y353D01*
X628Y350D01*
X608Y342D01*
X602Y337D01*
X546Y394D01*
Y840D01*
X1259Y1553D01*
X1275Y1551D01*
X1297Y1554D01*
X1317Y1562D01*
X1334Y1576D01*
X1347Y1593D01*
X1355Y1613D01*
X1358Y1634D01*
X1356Y1651D01*
X1873Y2167D01*
X1891Y2166D01*
X1908Y2153D01*
X1928Y2145D01*
X1950Y2142D01*
X1972Y2145D01*
X1992Y2153D01*
X2009Y2166D01*
X2022Y2183D01*
X2030Y2203D01*
X2033Y2225D01*
X2030Y2247D01*
X2022Y2267D01*
X2009Y2284D01*
X1992Y2297D01*
X1972Y2305D01*
X1950Y2308D01*
D02*
G37*
G36*
X3238Y2251D02*
X3218Y2248D01*
X3200Y2241D01*
X3185Y2228D01*
X3172Y2213D01*
X3165Y2195D01*
X3162Y2175D01*
X3165Y2155D01*
X3172Y2137D01*
X3185Y2122D01*
X3200Y2109D01*
X3218Y2102D01*
X3238Y2099D01*
X3258Y2102D01*
X3276Y2109D01*
X3291Y2122D01*
X3304Y2137D01*
X3311Y2155D01*
X3314Y2175D01*
X3311Y2195D01*
X3304Y2213D01*
X3291Y2228D01*
X3276Y2241D01*
X3258Y2248D01*
X3238Y2251D01*
D02*
G37*
G36*
X2750D02*
X2730Y2248D01*
X2712Y2241D01*
X2697Y2228D01*
X2684Y2213D01*
X2677Y2195D01*
X2674Y2175D01*
X2677Y2155D01*
X2684Y2137D01*
X2697Y2122D01*
X2712Y2109D01*
X2730Y2102D01*
X2750Y2099D01*
X2770Y2102D01*
X2788Y2109D01*
X2803Y2122D01*
X2816Y2137D01*
X2823Y2155D01*
X2826Y2175D01*
X2823Y2195D01*
X2816Y2213D01*
X2803Y2228D01*
X2788Y2241D01*
X2770Y2248D01*
X2750Y2251D01*
D02*
G37*
G36*
X6258Y1665D02*
Y1518D01*
X6405D01*
X6403Y1536D01*
X6394Y1567D01*
X6379Y1595D01*
X6359Y1619D01*
X6335Y1639D01*
X6307Y1654D01*
X6276Y1663D01*
X6258Y1665D01*
D02*
G37*
G36*
X6915Y1492D02*
X6768D01*
Y1345D01*
X6786Y1347D01*
X6817Y1356D01*
X6845Y1371D01*
X6869Y1391D01*
X6889Y1415D01*
X6904Y1443D01*
X6913Y1474D01*
X6915Y1492D01*
D02*
G37*
G36*
X6742D02*
X6595D01*
X6597Y1474D01*
X6606Y1443D01*
X6621Y1415D01*
X6641Y1391D01*
X6665Y1371D01*
X6693Y1356D01*
X6724Y1347D01*
X6742Y1345D01*
Y1492D01*
D02*
G37*
G36*
X6405D02*
X6258D01*
Y1345D01*
X6276Y1347D01*
X6307Y1356D01*
X6335Y1371D01*
X6359Y1391D01*
X6379Y1415D01*
X6394Y1443D01*
X6403Y1474D01*
X6405Y1492D01*
D02*
G37*
G36*
X6232Y1665D02*
X6214Y1663D01*
X6183Y1654D01*
X6155Y1639D01*
X6131Y1619D01*
X6111Y1595D01*
X6096Y1567D01*
X6087Y1536D01*
X6085Y1518D01*
X6232D01*
Y1665D01*
D02*
G37*
G36*
X5525Y2033D02*
X3425D01*
X3412Y2031D01*
X3402Y2023D01*
X2827Y1448D01*
X2819Y1438D01*
X2817Y1425D01*
Y1000D01*
X2819Y987D01*
X2827Y977D01*
X2918Y885D01*
X2917Y875D01*
X2920Y853D01*
X2928Y833D01*
X2941Y816D01*
X2958Y803D01*
X2978Y795D01*
X3000Y792D01*
X3022Y795D01*
X3042Y803D01*
X3059Y816D01*
X3072Y833D01*
X3080Y853D01*
X3083Y875D01*
X3080Y897D01*
X3072Y917D01*
X3068Y922D01*
X3080Y947D01*
X3093Y949D01*
X3103Y957D01*
X3939Y1792D01*
X5086D01*
X5352Y1527D01*
X5352Y1527D01*
X5873Y1005D01*
X5870Y997D01*
X5867Y975D01*
X5870Y953D01*
X5878Y933D01*
X5891Y916D01*
X5908Y903D01*
X5928Y895D01*
X5950Y892D01*
X5972Y895D01*
X5992Y903D01*
X6009Y916D01*
X6022Y933D01*
X6030Y953D01*
X6033Y975D01*
X6030Y997D01*
X6022Y1017D01*
X6009Y1034D01*
X5992Y1047D01*
X5972Y1055D01*
X5950Y1058D01*
X5928Y1055D01*
X5920Y1052D01*
X5398Y1573D01*
X5131Y1841D01*
X5139Y1863D01*
X5162Y1866D01*
X5869Y1159D01*
X5870Y1153D01*
X5878Y1133D01*
X5891Y1116D01*
X5908Y1103D01*
X5928Y1095D01*
X5950Y1092D01*
X5972Y1095D01*
X5992Y1103D01*
X6009Y1116D01*
X6022Y1133D01*
X6030Y1153D01*
X6033Y1175D01*
X6030Y1197D01*
X6022Y1217D01*
X6009Y1234D01*
X5992Y1247D01*
X5972Y1255D01*
X5950Y1258D01*
X5928Y1255D01*
X5908Y1247D01*
X5891Y1234D01*
X5888Y1234D01*
X5228Y1894D01*
X5238Y1917D01*
X5336D01*
X5868Y1385D01*
X5867Y1375D01*
X5870Y1353D01*
X5878Y1333D01*
X5891Y1316D01*
X5908Y1303D01*
X5928Y1295D01*
X5950Y1292D01*
X5972Y1295D01*
X5992Y1303D01*
X6009Y1316D01*
X6022Y1333D01*
X6030Y1353D01*
X6033Y1375D01*
X6030Y1397D01*
X6022Y1417D01*
X6009Y1434D01*
X5992Y1447D01*
X5972Y1455D01*
X5950Y1458D01*
X5928Y1455D01*
X5908Y1447D01*
X5904Y1443D01*
X5403Y1944D01*
X5413Y1967D01*
X5511D01*
X5873Y1605D01*
X5870Y1597D01*
X5867Y1575D01*
X5870Y1553D01*
X5878Y1533D01*
X5891Y1516D01*
X5908Y1503D01*
X5928Y1495D01*
X5950Y1492D01*
X5972Y1495D01*
X5992Y1503D01*
X6009Y1516D01*
X6022Y1533D01*
X6030Y1553D01*
X6033Y1575D01*
X6030Y1597D01*
X6022Y1617D01*
X6009Y1634D01*
X5992Y1647D01*
X5972Y1655D01*
X5950Y1658D01*
X5928Y1655D01*
X5920Y1652D01*
X5548Y2023D01*
X5538Y2031D01*
X5536Y2031D01*
X5525Y2033D01*
D02*
G37*
G36*
X254Y1571D02*
X229Y1568D01*
X206Y1558D01*
X186Y1543D01*
X171Y1523D01*
X161Y1500D01*
X158Y1475D01*
X161Y1450D01*
X171Y1427D01*
X186Y1407D01*
X206Y1392D01*
X229Y1382D01*
X254Y1379D01*
X279Y1382D01*
X302Y1392D01*
X322Y1407D01*
X337Y1427D01*
X347Y1450D01*
X350Y1475D01*
X347Y1500D01*
X337Y1523D01*
X322Y1543D01*
X302Y1558D01*
X279Y1568D01*
X254Y1571D01*
D02*
G37*
%LPD*%
D28*
X3000Y1125D02*
X3025Y1100D01*
X3075D02*
X3875Y1900D01*
X3025Y1100D02*
X3075D01*
X3080Y980D02*
X3925Y1825D01*
X2905Y1036D02*
Y1289D01*
X2961Y980D02*
X3080D01*
X2905Y1036D02*
X2961Y980D01*
X3000Y1075D02*
Y1125D01*
X2905Y1289D02*
X3000Y1384D01*
Y1425D01*
X5100Y1825D02*
X5375Y1550D01*
X3925Y1825D02*
X5100D01*
X5175Y1900D02*
X5900Y1175D01*
X3875Y1900D02*
X5175D01*
X5350Y1950D02*
X5925Y1375D01*
X3700Y1950D02*
X5350D01*
X3000Y1250D02*
X3700Y1950D01*
X5525Y2000D02*
X5950Y1575D01*
X3425Y2000D02*
X5525D01*
X2850Y1425D02*
X3425Y2000D01*
X5375Y1550D02*
X5950Y975D01*
X5375Y1550D02*
X5375D01*
X5900Y1175D02*
X5950D01*
X5925Y1375D02*
X5950D01*
X2975Y875D02*
X3000D01*
X2850Y1000D02*
X2975Y875D01*
X2850Y1000D02*
Y1425D01*
X2125Y550D02*
Y1500D01*
D29*
X605Y270D02*
X650D01*
X500Y375D02*
X605Y270D01*
X500Y375D02*
Y860D01*
X1275Y1634D01*
X1866Y2225D02*
X1950D01*
X1275Y1634D02*
X1866Y2225D01*
D31*
X6755Y995D02*
D03*
X6245Y1505D02*
D03*
X6755D02*
D03*
X6245Y995D02*
D03*
X6500Y1250D02*
D03*
D32*
X3238Y2175D02*
D03*
X2750D02*
D03*
D33*
X254Y1025D02*
D03*
Y1475D02*
D03*
D34*
Y665D02*
D03*
Y1835D02*
D03*
D35*
X1640Y1670D02*
D03*
X2650Y1190D02*
D03*
X650Y525D02*
D03*
X800Y875D02*
D03*
X2250Y1275D02*
D03*
X1900D02*
D03*
X3500Y2100D02*
D03*
X2450Y2000D02*
D03*
X5100Y350D02*
D03*
Y650D02*
D03*
X2600Y2000D02*
D03*
X3400Y2300D02*
D03*
X3200Y2000D02*
D03*
X3000D02*
D03*
X2800D02*
D03*
X3100Y2100D02*
D03*
X2900D02*
D03*
X3200Y700D02*
D03*
Y900D02*
D03*
Y500D02*
D03*
X2550Y100D02*
D03*
X2100D02*
D03*
X500D02*
D03*
X200D02*
D03*
Y400D02*
D03*
Y2100D02*
D03*
X500D02*
D03*
X800D02*
D03*
Y2300D02*
D03*
X500D02*
D03*
X200D02*
D03*
X6500Y350D02*
D03*
X6750Y450D02*
D03*
X6900Y700D02*
D03*
Y550D02*
D03*
X4150Y2250D02*
D03*
X4400D02*
D03*
X4650D02*
D03*
X4900D02*
D03*
X5150D02*
D03*
X5400D02*
D03*
X5650D02*
D03*
X5900D02*
D03*
Y2000D02*
D03*
X6150Y2250D02*
D03*
X6400D02*
D03*
X6650D02*
D03*
X6900D02*
D03*
Y2000D02*
D03*
X6650D02*
D03*
X6400D02*
D03*
X6150D02*
D03*
X6900Y1750D02*
D03*
X6650D02*
D03*
X6400D02*
D03*
X6150D02*
D03*
X5200Y750D02*
D03*
Y450D02*
D03*
Y600D02*
D03*
Y300D02*
D03*
X5600Y400D02*
D03*
Y750D02*
D03*
X6600Y700D02*
D03*
X6500Y550D02*
D03*
X6350Y450D02*
D03*
X6200Y400D02*
D03*
X6050D02*
D03*
X5900D02*
D03*
X5750D02*
D03*
X6200Y750D02*
D03*
X6050D02*
D03*
X5900D02*
D03*
X5750D02*
D03*
X6900Y200D02*
D03*
X6600D02*
D03*
X6300D02*
D03*
X6000D02*
D03*
X5700D02*
D03*
X3200Y100D02*
D03*
X3400Y200D02*
D03*
X5400D02*
D03*
X5100D02*
D03*
X4700D02*
D03*
X4300D02*
D03*
X3900D02*
D03*
X5100Y500D02*
D03*
X4700D02*
D03*
X4300D02*
D03*
X3900D02*
D03*
X5100Y800D02*
D03*
X4700D02*
D03*
X4300D02*
D03*
X3900D02*
D03*
X5100Y1100D02*
D03*
X4700D02*
D03*
X4300D02*
D03*
X3900D02*
D03*
X5100Y1400D02*
D03*
X4700D02*
D03*
X4300D02*
D03*
X3900D02*
D03*
X2700Y1675D02*
D03*
X1475Y1000D02*
D03*
X3000Y1075D02*
D03*
Y1425D02*
D03*
X1275Y1634D02*
D03*
X1950Y2225D02*
D03*
X3000Y875D02*
D03*
Y1250D02*
D03*
X5950Y975D02*
D03*
Y1175D02*
D03*
Y1375D02*
D03*
Y1575D02*
D03*
X650Y270D02*
D03*
X2125Y550D02*
D03*
Y1500D02*
D03*
M02*
