G04*
G04 #@! TF.GenerationSoftware,Altium Limited,Altium Designer,18.1.1 (9)*
G04*
G04 Layer_Color=8388736*
%FSLAX42Y42*%
%MOMM*%
G71*
G01*
G75*
%ADD10C,0.15*%
G04:AMPARAMS|DCode=11|XSize=1.06mm|YSize=1.55mm|CornerRadius=0.32mm|HoleSize=0mm|Usage=FLASHONLY|Rotation=0.000|XOffset=0mm|YOffset=0mm|HoleType=Round|Shape=RoundedRectangle|*
%AMROUNDEDRECTD11*
21,1,1.06,0.91,0,0,0.0*
21,1,0.42,1.55,0,0,0.0*
1,1,0.64,0.21,-0.46*
1,1,0.64,-0.21,-0.46*
1,1,0.64,-0.21,0.46*
1,1,0.64,0.21,0.46*
%
%ADD11ROUNDEDRECTD11*%
%ADD12R,0.80X1.15*%
%ADD13R,0.94X1.22*%
%ADD14R,1.15X0.80*%
%ADD15R,1.20X1.00*%
%ADD16R,2.70X1.40*%
%ADD17R,1.65X1.20*%
%ADD18R,1.22X0.94*%
%ADD19R,0.90X0.80*%
%ADD20R,1.50X2.15*%
%ADD21R,1.00X1.20*%
%ADD22R,2.35X1.20*%
%ADD23R,2.35X3.45*%
%ADD24O,1.65X0.80*%
%ADD25O,1.65X0.50*%
%ADD26O,0.50X1.65*%
%ADD27R,2.70X1.45*%
%ADD28C,1.00*%
%ADD29C,1.45*%
%ADD30C,2.90*%
%ADD31C,1.30*%
%ADD32C,1.20*%
%ADD33O,3.20X1.70*%
%ADD34C,1.45*%
%ADD35C,1.05*%
D10*
X3830Y2440D02*
Y2373D01*
X3843Y2360D01*
X3870D01*
X3883Y2373D01*
Y2440D01*
X3963Y2427D02*
X3950Y2440D01*
X3923D01*
X3910Y2427D01*
Y2413D01*
X3923Y2400D01*
X3950D01*
X3963Y2387D01*
Y2373D01*
X3950Y2360D01*
X3923D01*
X3910Y2373D01*
X3990Y2440D02*
Y2360D01*
X4030D01*
X4043Y2373D01*
Y2387D01*
X4030Y2400D01*
X3990D01*
X4030D01*
X4043Y2413D01*
Y2427D01*
X4030Y2440D01*
X3990D01*
X4150Y2360D02*
Y2440D01*
X4190D01*
X4203Y2427D01*
Y2400D01*
X4190Y2387D01*
X4150D01*
X4177D02*
X4203Y2360D01*
X4283Y2440D02*
X4230D01*
Y2400D01*
X4257D01*
X4230D01*
Y2360D01*
X4403Y2413D02*
X4430D01*
X4443Y2400D01*
Y2360D01*
X4403D01*
X4390Y2373D01*
X4403Y2387D01*
X4443D01*
X4523Y2440D02*
Y2360D01*
X4483D01*
X4470Y2373D01*
Y2400D01*
X4483Y2413D01*
X4523D01*
X4563D02*
X4590D01*
X4603Y2400D01*
Y2360D01*
X4563D01*
X4550Y2373D01*
X4563Y2387D01*
X4603D01*
X4630Y2333D02*
Y2413D01*
X4670D01*
X4683Y2400D01*
Y2373D01*
X4670Y2360D01*
X4630D01*
X4723Y2427D02*
Y2413D01*
X4710D01*
X4736D01*
X4723D01*
Y2373D01*
X4736Y2360D01*
X4816D02*
X4790D01*
X4776Y2373D01*
Y2400D01*
X4790Y2413D01*
X4816D01*
X4830Y2400D01*
Y2387D01*
X4776D01*
X4856Y2413D02*
Y2360D01*
Y2387D01*
X4870Y2400D01*
X4883Y2413D01*
X4896D01*
X5016D02*
X5043Y2360D01*
X5070Y2413D01*
X5096Y2360D02*
X5123D01*
X5110D01*
Y2440D01*
X5096Y2427D01*
X5163Y2360D02*
Y2373D01*
X5176D01*
Y2360D01*
X5163D01*
X5230D02*
X5256D01*
X5243D01*
Y2440D01*
X5230Y2427D01*
X5403Y2360D02*
X5376Y2387D01*
Y2413D01*
X5403Y2440D01*
X5496Y2413D02*
X5456D01*
X5443Y2400D01*
Y2373D01*
X5456Y2360D01*
X5496D01*
X5523D02*
X5549Y2387D01*
Y2413D01*
X5523Y2440D01*
X5669D02*
Y2360D01*
Y2400D01*
X5723D01*
Y2440D01*
Y2360D01*
X5763Y2413D02*
X5789D01*
X5803Y2400D01*
Y2360D01*
X5763D01*
X5749Y2373D01*
X5763Y2387D01*
X5803D01*
X5829Y2413D02*
Y2360D01*
Y2387D01*
X5843Y2400D01*
X5856Y2413D01*
X5869D01*
X5909Y2440D02*
Y2360D01*
X5949D01*
X5963Y2373D01*
Y2387D01*
Y2400D01*
X5949Y2413D01*
X5909D01*
X5989Y2360D02*
X6016D01*
X6003D01*
Y2413D01*
X5989D01*
X6056Y2360D02*
Y2413D01*
X6096D01*
X6109Y2400D01*
Y2360D01*
X6163Y2333D02*
X6176D01*
X6189Y2347D01*
Y2413D01*
X6149D01*
X6136Y2400D01*
Y2373D01*
X6149Y2360D01*
X6189D01*
X6256D02*
X6229D01*
X6216Y2373D01*
Y2400D01*
X6229Y2413D01*
X6256D01*
X6269Y2400D01*
Y2387D01*
X6216D01*
X6296Y2413D02*
Y2360D01*
Y2387D01*
X6309Y2400D01*
X6323Y2413D01*
X6336D01*
X6509Y2360D02*
X6456D01*
X6509Y2413D01*
Y2427D01*
X6496Y2440D01*
X6469D01*
X6456Y2427D01*
X6536D02*
X6549Y2440D01*
X6576D01*
X6589Y2427D01*
Y2373D01*
X6576Y2360D01*
X6549D01*
X6536Y2373D01*
Y2427D01*
X6616Y2360D02*
X6642D01*
X6629D01*
Y2440D01*
X6616Y2427D01*
X6682D02*
X6696Y2440D01*
X6722D01*
X6736Y2427D01*
Y2413D01*
X6722Y2400D01*
X6736Y2387D01*
Y2373D01*
X6722Y2360D01*
X6696D01*
X6682Y2373D01*
Y2387D01*
X6696Y2400D01*
X6682Y2413D01*
Y2427D01*
X6696Y2400D02*
X6722D01*
D11*
X4869Y2000D02*
D03*
X4681D02*
D03*
X5469D02*
D03*
X5281D02*
D03*
X4269D02*
D03*
X4081D02*
D03*
D12*
X4550D02*
D03*
X4400D02*
D03*
X5000D02*
D03*
X5150D02*
D03*
X3800D02*
D03*
X3950D02*
D03*
X700Y725D02*
D03*
X850D02*
D03*
X975Y950D02*
D03*
X1125D02*
D03*
X925Y1150D02*
D03*
X1075D02*
D03*
X925Y1350D02*
D03*
X1075D02*
D03*
X1375Y2350D02*
D03*
X1525D02*
D03*
X1250D02*
D03*
X1100D02*
D03*
X2225Y550D02*
D03*
X2375D02*
D03*
D13*
X3078Y575D02*
D03*
X3225D02*
D03*
X3075Y775D02*
D03*
X3222D02*
D03*
X3076Y975D02*
D03*
X3224D02*
D03*
X3078Y1175D02*
D03*
X3225D02*
D03*
X3075Y1375D02*
D03*
X3222D02*
D03*
X5678D02*
D03*
X5825D02*
D03*
X5678Y1575D02*
D03*
X5825D02*
D03*
X5678Y1175D02*
D03*
X5825D02*
D03*
X5678Y975D02*
D03*
X5825D02*
D03*
X3076Y1575D02*
D03*
X3224D02*
D03*
Y1775D02*
D03*
X3076D02*
D03*
D14*
X1400Y1375D02*
D03*
Y1225D02*
D03*
X2200Y375D02*
D03*
Y225D02*
D03*
X1950Y2125D02*
D03*
Y1975D02*
D03*
D15*
X1250Y1225D02*
D03*
Y1360D02*
D03*
X2650Y1293D02*
D03*
Y1157D02*
D03*
X2325Y2210D02*
D03*
Y2075D02*
D03*
X800Y1015D02*
D03*
Y1150D02*
D03*
Y1485D02*
D03*
Y1350D02*
D03*
X1800Y2110D02*
D03*
Y1975D02*
D03*
X2175Y2110D02*
D03*
Y1975D02*
D03*
X3650Y2185D02*
D03*
Y2050D02*
D03*
X800Y1910D02*
D03*
Y1775D02*
D03*
D16*
X3475Y1775D02*
D03*
Y1575D02*
D03*
Y1375D02*
D03*
Y1175D02*
D03*
Y975D02*
D03*
Y775D02*
D03*
Y575D02*
D03*
Y375D02*
D03*
X5425Y1775D02*
D03*
Y1575D02*
D03*
Y1375D02*
D03*
Y1175D02*
D03*
Y975D02*
D03*
Y775D02*
D03*
Y575D02*
D03*
Y375D02*
D03*
D17*
X3200Y200D02*
D03*
Y360D02*
D03*
D18*
X3000Y347D02*
D03*
Y200D02*
D03*
X525Y278D02*
D03*
Y425D02*
D03*
D19*
X2350Y185D02*
D03*
Y375D02*
D03*
X2550Y280D02*
D03*
D20*
X1950Y255D02*
D03*
Y500D02*
D03*
X775Y520D02*
D03*
Y275D02*
D03*
D21*
X1938Y700D02*
D03*
X1802D02*
D03*
X1207Y1500D02*
D03*
X1343D02*
D03*
D22*
X1057Y730D02*
D03*
Y500D02*
D03*
Y270D02*
D03*
D23*
X1642Y500D02*
D03*
D24*
X1002Y2166D02*
D03*
Y2039D02*
D03*
Y1911D02*
D03*
Y1784D02*
D03*
X1548Y2166D02*
D03*
Y2039D02*
D03*
Y1911D02*
D03*
Y1784D02*
D03*
D25*
X1627Y1573D02*
D03*
Y1523D02*
D03*
Y1473D02*
D03*
Y1423D02*
D03*
Y1373D02*
D03*
Y1323D02*
D03*
Y1273D02*
D03*
Y1223D02*
D03*
Y1173D02*
D03*
Y1123D02*
D03*
Y1073D02*
D03*
Y1023D02*
D03*
X2473D02*
D03*
Y1073D02*
D03*
Y1123D02*
D03*
Y1173D02*
D03*
Y1223D02*
D03*
Y1273D02*
D03*
Y1323D02*
D03*
Y1373D02*
D03*
Y1423D02*
D03*
Y1473D02*
D03*
Y1523D02*
D03*
Y1573D02*
D03*
D26*
X1775Y875D02*
D03*
X1825D02*
D03*
X1875D02*
D03*
X1925D02*
D03*
X1975D02*
D03*
X2025D02*
D03*
X2075D02*
D03*
X2125D02*
D03*
X2175D02*
D03*
X2225D02*
D03*
X2275D02*
D03*
X2325D02*
D03*
Y1720D02*
D03*
X2275D02*
D03*
X2225D02*
D03*
X2175D02*
D03*
X2125D02*
D03*
X2075D02*
D03*
X2025D02*
D03*
X1975D02*
D03*
X1925D02*
D03*
X1875D02*
D03*
X1825D02*
D03*
X1775D02*
D03*
D27*
X524Y900D02*
D03*
Y1150D02*
D03*
Y1350D02*
D03*
Y1600D02*
D03*
D28*
X7200Y-200D02*
D03*
X-200D02*
D03*
X7200Y2700D02*
D03*
X-200D02*
D03*
D29*
X2960Y1770D02*
D03*
D30*
X6755Y995D02*
D03*
X6245Y1505D02*
D03*
X6755D02*
D03*
X6245Y995D02*
D03*
X6500Y1250D02*
D03*
D31*
X3238Y2175D02*
D03*
X2750D02*
D03*
D32*
X254Y1025D02*
D03*
Y1475D02*
D03*
D33*
Y665D02*
D03*
Y1835D02*
D03*
D34*
X2060Y700D02*
D03*
X2250Y1030D02*
D03*
X2050Y1075D02*
D03*
X5000Y2125D02*
D03*
X2277Y1373D02*
D03*
X2300Y1525D02*
D03*
X2950Y480D02*
D03*
D35*
X2150Y1475D02*
D03*
X2600Y725D02*
D03*
Y925D02*
D03*
X2600Y550D02*
D03*
Y400D02*
D03*
X5600D02*
D03*
X3580Y190D02*
D03*
X1640Y1670D02*
D03*
X2650Y1425D02*
D03*
X650Y525D02*
D03*
X800Y875D02*
D03*
X2250Y1225D02*
D03*
X1875Y1300D02*
D03*
X3500Y2100D02*
D03*
X5100Y350D02*
D03*
Y650D02*
D03*
X2575Y2125D02*
D03*
X3400Y2300D02*
D03*
X3075Y2175D02*
D03*
X2900D02*
D03*
X2825Y100D02*
D03*
X2550D02*
D03*
X2100D02*
D03*
X500D02*
D03*
X200D02*
D03*
Y400D02*
D03*
Y2100D02*
D03*
X500D02*
D03*
X800D02*
D03*
Y2300D02*
D03*
X500D02*
D03*
X200D02*
D03*
X6500Y350D02*
D03*
X6750Y450D02*
D03*
X6900Y700D02*
D03*
Y550D02*
D03*
X4150Y2250D02*
D03*
X4400D02*
D03*
X4650D02*
D03*
X4900D02*
D03*
X5150D02*
D03*
X5400D02*
D03*
X5650D02*
D03*
X5900D02*
D03*
Y2000D02*
D03*
X6150Y2250D02*
D03*
X6400D02*
D03*
X6650D02*
D03*
X6900D02*
D03*
Y2000D02*
D03*
X6650D02*
D03*
X6400D02*
D03*
X6150D02*
D03*
X6900Y1750D02*
D03*
X6650D02*
D03*
X6400D02*
D03*
X6150D02*
D03*
X5200Y750D02*
D03*
Y450D02*
D03*
Y600D02*
D03*
Y300D02*
D03*
X5600Y750D02*
D03*
X6600Y700D02*
D03*
X6500Y550D02*
D03*
X6350Y450D02*
D03*
X6200Y400D02*
D03*
X6050D02*
D03*
X5900D02*
D03*
X5750D02*
D03*
X6200Y750D02*
D03*
X6050D02*
D03*
X5900D02*
D03*
X5750D02*
D03*
X6900Y200D02*
D03*
X6600D02*
D03*
X6300D02*
D03*
X6000D02*
D03*
X5700D02*
D03*
X3380Y190D02*
D03*
X5400Y200D02*
D03*
X5100D02*
D03*
X4700D02*
D03*
X4300D02*
D03*
X3900D02*
D03*
X5100Y500D02*
D03*
X4700D02*
D03*
X4300D02*
D03*
X3900D02*
D03*
X5100Y800D02*
D03*
X4700D02*
D03*
X4300D02*
D03*
X3900D02*
D03*
X5100Y1100D02*
D03*
X4700D02*
D03*
X4300D02*
D03*
X3900D02*
D03*
X5100Y1400D02*
D03*
X4700D02*
D03*
X4300D02*
D03*
X3900D02*
D03*
X1475Y1000D02*
D03*
X1275Y1634D02*
D03*
X1950Y2225D02*
D03*
X5950Y975D02*
D03*
Y1175D02*
D03*
Y1375D02*
D03*
Y1575D02*
D03*
X650Y270D02*
D03*
X2125Y550D02*
D03*
M02*
