G04*
G04 #@! TF.GenerationSoftware,Altium Limited,Altium Designer,18.1.1 (9)*
G04*
G04 Layer_Color=16711935*
%FSLAX42Y42*%
%MOMM*%
G71*
G01*
G75*
%ADD28C,1.00*%
%ADD29C,1.45*%
%ADD30C,2.90*%
%ADD31C,1.30*%
%ADD32C,1.20*%
%ADD33O,3.20X1.70*%
%ADD34C,1.45*%
%ADD35C,1.05*%
D28*
X7200Y-200D02*
D03*
X-200D02*
D03*
X7200Y2700D02*
D03*
X-200D02*
D03*
D29*
X2960Y1770D02*
D03*
D30*
X6755Y995D02*
D03*
X6245Y1505D02*
D03*
X6755D02*
D03*
X6245Y995D02*
D03*
X6500Y1250D02*
D03*
D31*
X3238Y2175D02*
D03*
X2750D02*
D03*
D32*
X254Y1025D02*
D03*
Y1475D02*
D03*
D33*
Y665D02*
D03*
Y1835D02*
D03*
D34*
X2060Y700D02*
D03*
X2250Y1030D02*
D03*
X2050Y1075D02*
D03*
X5000Y2125D02*
D03*
X2277Y1373D02*
D03*
X2300Y1525D02*
D03*
X2950Y480D02*
D03*
D35*
X2150Y1475D02*
D03*
X2600Y725D02*
D03*
Y925D02*
D03*
X2600Y550D02*
D03*
Y400D02*
D03*
X5600D02*
D03*
X3580Y190D02*
D03*
X1640Y1670D02*
D03*
X2650Y1425D02*
D03*
X650Y525D02*
D03*
X800Y875D02*
D03*
X2250Y1225D02*
D03*
X1875Y1300D02*
D03*
X3500Y2100D02*
D03*
X5100Y350D02*
D03*
Y650D02*
D03*
X2575Y2125D02*
D03*
X3400Y2300D02*
D03*
X3075Y2175D02*
D03*
X2900D02*
D03*
X2825Y100D02*
D03*
X2550D02*
D03*
X2100D02*
D03*
X500D02*
D03*
X200D02*
D03*
Y400D02*
D03*
Y2100D02*
D03*
X500D02*
D03*
X800D02*
D03*
Y2300D02*
D03*
X500D02*
D03*
X200D02*
D03*
X6500Y350D02*
D03*
X6750Y450D02*
D03*
X6900Y700D02*
D03*
Y550D02*
D03*
X4150Y2250D02*
D03*
X4400D02*
D03*
X4650D02*
D03*
X4900D02*
D03*
X5150D02*
D03*
X5400D02*
D03*
X5650D02*
D03*
X5900D02*
D03*
Y2000D02*
D03*
X6150Y2250D02*
D03*
X6400D02*
D03*
X6650D02*
D03*
X6900D02*
D03*
Y2000D02*
D03*
X6650D02*
D03*
X6400D02*
D03*
X6150D02*
D03*
X6900Y1750D02*
D03*
X6650D02*
D03*
X6400D02*
D03*
X6150D02*
D03*
X5200Y750D02*
D03*
Y450D02*
D03*
Y600D02*
D03*
Y300D02*
D03*
X5600Y750D02*
D03*
X6600Y700D02*
D03*
X6500Y550D02*
D03*
X6350Y450D02*
D03*
X6200Y400D02*
D03*
X6050D02*
D03*
X5900D02*
D03*
X5750D02*
D03*
X6200Y750D02*
D03*
X6050D02*
D03*
X5900D02*
D03*
X5750D02*
D03*
X6900Y200D02*
D03*
X6600D02*
D03*
X6300D02*
D03*
X6000D02*
D03*
X5700D02*
D03*
X3380Y190D02*
D03*
X5400Y200D02*
D03*
X5100D02*
D03*
X4700D02*
D03*
X4300D02*
D03*
X3900D02*
D03*
X5100Y500D02*
D03*
X4700D02*
D03*
X4300D02*
D03*
X3900D02*
D03*
X5100Y800D02*
D03*
X4700D02*
D03*
X4300D02*
D03*
X3900D02*
D03*
X5100Y1100D02*
D03*
X4700D02*
D03*
X4300D02*
D03*
X3900D02*
D03*
X5100Y1400D02*
D03*
X4700D02*
D03*
X4300D02*
D03*
X3900D02*
D03*
X1475Y1000D02*
D03*
X1275Y1634D02*
D03*
X1950Y2225D02*
D03*
X5950Y975D02*
D03*
Y1175D02*
D03*
Y1375D02*
D03*
Y1575D02*
D03*
X650Y270D02*
D03*
X2125Y550D02*
D03*
M02*
