G04*
G04 #@! TF.GenerationSoftware,Altium Limited,Altium Designer,18.1.1 (9)*
G04*
G04 Layer_Physical_Order=1*
G04 Layer_Color=255*
%FSLAX42Y42*%
%MOMM*%
G71*
G01*
G75*
%ADD32C,1.20*%
%ADD36C,1.00*%
G04:AMPARAMS|DCode=37|XSize=0.86mm|YSize=1.35mm|CornerRadius=0.22mm|HoleSize=0mm|Usage=FLASHONLY|Rotation=0.000|XOffset=0mm|YOffset=0mm|HoleType=Round|Shape=RoundedRectangle|*
%AMROUNDEDRECTD37*
21,1,0.86,0.91,0,0,0.0*
21,1,0.42,1.35,0,0,0.0*
1,1,0.44,0.21,-0.46*
1,1,0.44,-0.21,-0.46*
1,1,0.44,-0.21,0.46*
1,1,0.44,0.21,0.46*
%
%ADD37ROUNDEDRECTD37*%
%ADD38R,0.60X0.95*%
%ADD39R,0.74X1.02*%
%ADD40R,0.95X0.60*%
%ADD41R,1.00X0.80*%
%ADD42R,2.50X1.20*%
%ADD43R,1.45X1.00*%
%ADD44R,1.02X0.74*%
%ADD45R,0.70X0.60*%
%ADD46R,1.30X1.95*%
%ADD47R,0.80X1.00*%
%ADD48R,2.15X1.00*%
%ADD49R,2.15X3.25*%
%ADD50O,1.45X0.60*%
%ADD51O,1.45X0.30*%
%ADD52O,0.30X1.45*%
%ADD53R,2.50X1.25*%
%ADD54C,0.20*%
%ADD55C,0.25*%
%ADD56C,0.50*%
%ADD57C,0.30*%
%ADD58C,0.80*%
%ADD59C,0.80*%
%ADD60C,1.25*%
%ADD61C,2.70*%
%ADD62C,1.10*%
%ADD63O,3.00X1.50*%
G36*
X6969Y31D02*
X31D01*
Y2469D01*
X6969D01*
Y31D01*
D02*
G37*
%LPC*%
G36*
X1575Y2417D02*
X1475D01*
Y2283D01*
X1575D01*
Y2317D01*
X1636D01*
X1642Y2311D01*
Y2219D01*
X1617Y2208D01*
X1610Y2213D01*
X1590Y2216D01*
X1505D01*
X1485Y2213D01*
X1469Y2202D01*
X1444Y2203D01*
X1408Y2239D01*
Y2283D01*
X1425D01*
Y2417D01*
X1325D01*
Y2383D01*
X1300D01*
Y2417D01*
X1200D01*
Y2283D01*
X1300D01*
Y2317D01*
X1325D01*
Y2283D01*
X1342D01*
Y2225D01*
X1344Y2212D01*
X1352Y2202D01*
X1411Y2142D01*
X1422Y2135D01*
X1435Y2132D01*
X1467D01*
X1469Y2129D01*
X1485Y2118D01*
X1505Y2115D01*
X1541D01*
X1555Y2090D01*
X1555Y2089D01*
X1505D01*
X1485Y2086D01*
X1469Y2075D01*
X1467Y2072D01*
X1464D01*
X1451Y2069D01*
X1440Y2062D01*
X1352Y1973D01*
X1344Y1963D01*
X1342Y1950D01*
Y1719D01*
X1317Y1706D01*
X1317Y1707D01*
X1297Y1715D01*
X1275Y1718D01*
X1259Y1716D01*
X1171Y1804D01*
Y2050D01*
Y2275D01*
X1167Y2293D01*
X1157Y2307D01*
X1150Y2315D01*
Y2417D01*
X1050D01*
Y2283D01*
X1058D01*
X1058Y2282D01*
X1068Y2268D01*
X1075Y2260D01*
X1074Y2235D01*
X1054Y2220D01*
X1045Y2222D01*
X1015D01*
Y2166D01*
X1002D01*
Y2153D01*
X906D01*
X908Y2144D01*
X920Y2126D01*
X938Y2113D01*
X945Y2112D01*
Y2087D01*
X940Y2086D01*
X924Y2075D01*
X913Y2058D01*
X909Y2039D01*
X913Y2019D01*
X924Y2002D01*
X940Y1991D01*
X960Y1988D01*
X1045D01*
X1052Y1982D01*
X1029Y1962D01*
X960D01*
X940Y1959D01*
X924Y1948D01*
X913Y1931D01*
X909Y1911D01*
X913Y1892D01*
X924Y1875D01*
X940Y1864D01*
X960Y1861D01*
X1045D01*
X1052Y1855D01*
X1029Y1835D01*
X960D01*
X940Y1832D01*
X939Y1830D01*
X895D01*
X875Y1845D01*
X875Y1858D01*
Y1897D01*
X800D01*
X725D01*
Y1858D01*
X725Y1845D01*
X730Y1822D01*
Y1715D01*
X870D01*
Y1739D01*
X939D01*
X940Y1737D01*
X960Y1734D01*
X1045D01*
X1065Y1737D01*
X1066Y1739D01*
X1106D01*
X1194Y1651D01*
X1192Y1634D01*
X1195Y1613D01*
X1200Y1600D01*
X1190Y1581D01*
X1185Y1575D01*
X1142D01*
Y1513D01*
X1207D01*
Y1487D01*
X1142D01*
Y1448D01*
X1142Y1446D01*
X1141Y1434D01*
X1127Y1420D01*
X1127Y1420D01*
X1116Y1418D01*
X1116Y1418D01*
X1105Y1418D01*
X1025D01*
Y1282D01*
X1096D01*
X1117Y1261D01*
Y1218D01*
X1025D01*
Y1082D01*
X1071D01*
X1077Y1077D01*
X1087Y1069D01*
X1100Y1067D01*
X1425D01*
X1438Y1069D01*
X1448Y1077D01*
X1512Y1141D01*
X1535Y1128D01*
X1534Y1123D01*
X1537Y1109D01*
X1545Y1098D01*
X1537Y1086D01*
X1534Y1073D01*
X1537Y1059D01*
X1545Y1048D01*
X1537Y1036D01*
X1534Y1023D01*
X1537Y1009D01*
X1545Y997D01*
X1556Y990D01*
X1570Y987D01*
X1685D01*
X1699Y990D01*
X1710Y997D01*
X1718Y1009D01*
X1721Y1023D01*
X1718Y1036D01*
X1710Y1048D01*
X1718Y1059D01*
X1721Y1073D01*
X1742Y1092D01*
X1792D01*
Y990D01*
X1775Y968D01*
X1761Y965D01*
X1750Y958D01*
X1742Y946D01*
X1739Y932D01*
Y895D01*
X1175D01*
Y1018D01*
X1075D01*
Y895D01*
X1025D01*
Y1018D01*
X925D01*
Y882D01*
X942D01*
Y800D01*
X930D01*
Y776D01*
X900D01*
Y793D01*
X800D01*
Y668D01*
X800Y657D01*
X781Y643D01*
X777D01*
X755Y652D01*
X755Y668D01*
Y712D01*
X700D01*
X645D01*
Y652D01*
X663D01*
X685Y643D01*
X685Y627D01*
Y533D01*
X775D01*
Y507D01*
X685D01*
Y415D01*
X685Y397D01*
X690Y374D01*
Y366D01*
X665Y351D01*
X650Y353D01*
X628Y350D01*
X608Y342D01*
X605Y340D01*
X596Y335D01*
X454D01*
Y221D01*
X584D01*
X591Y211D01*
X608Y198D01*
X628Y190D01*
X650Y187D01*
X665Y189D01*
X690Y174D01*
Y158D01*
X860D01*
X880Y144D01*
Y125D01*
X881Y117D01*
X886Y111D01*
X892Y106D01*
X900Y105D01*
X1825D01*
X1833Y106D01*
X1839Y111D01*
X1842Y114D01*
X1849Y122D01*
X1858Y129D01*
X1868Y132D01*
X1870D01*
X1937D01*
Y255D01*
X1963D01*
Y132D01*
X2040D01*
Y213D01*
X2065Y221D01*
X2068Y218D01*
X2093Y193D01*
X2107Y183D01*
X2125Y179D01*
X2133D01*
Y175D01*
X2267D01*
X2287Y161D01*
X2295Y153D01*
Y135D01*
X2405D01*
Y235D01*
X2365D01*
X2342Y257D01*
X2328Y267D01*
X2310Y271D01*
X2267D01*
Y275D01*
X2146D01*
Y325D01*
X2267D01*
Y342D01*
X2295D01*
Y325D01*
X2405D01*
Y386D01*
X2406Y387D01*
X2408Y400D01*
Y411D01*
X2433Y420D01*
X2477Y377D01*
X2487Y369D01*
X2500Y367D01*
X2509D01*
X2516Y355D01*
X2502Y330D01*
X2495D01*
Y230D01*
X2605D01*
Y234D01*
X2841D01*
X2908Y168D01*
X2922Y158D01*
X2929Y156D01*
Y143D01*
X3071D01*
Y257D01*
X2964D01*
X2958Y265D01*
X2971Y290D01*
X3071D01*
Y290D01*
X3095Y288D01*
X3102Y276D01*
X3102Y275D01*
X3102D01*
X3102Y267D01*
Y213D01*
X3298D01*
Y231D01*
X3301Y255D01*
X3660D01*
Y341D01*
X3664Y342D01*
X3675Y350D01*
X3700Y375D01*
X3708Y386D01*
X3711Y400D01*
Y1860D01*
X3783Y1933D01*
X3850D01*
Y2067D01*
X3750D01*
X3750Y2067D01*
X3725Y2068D01*
X3725Y2115D01*
X3720Y2138D01*
Y2245D01*
X3580D01*
Y2233D01*
X3285D01*
X3276Y2241D01*
X3258Y2248D01*
X3238Y2251D01*
X3218Y2248D01*
X3210Y2245D01*
X3131Y2323D01*
X3121Y2331D01*
X3108Y2333D01*
X2165D01*
X2153Y2331D01*
X2142Y2323D01*
X2057Y2238D01*
X2030Y2247D01*
X2022Y2267D01*
X2009Y2284D01*
X1992Y2297D01*
X1972Y2305D01*
X1950Y2308D01*
X1928Y2305D01*
X1908Y2297D01*
X1891Y2284D01*
X1878Y2267D01*
X1870Y2247D01*
X1867Y2225D01*
X1870Y2203D01*
X1871Y2200D01*
X1854Y2175D01*
X1813D01*
Y2110D01*
X1787D01*
Y2175D01*
X1733D01*
X1725Y2175D01*
X1708Y2194D01*
Y2325D01*
X1706Y2338D01*
X1698Y2348D01*
X1673Y2373D01*
X1663Y2381D01*
X1650Y2383D01*
X1575D01*
Y2417D01*
D02*
G37*
G36*
X990Y2222D02*
X960D01*
X938Y2218D01*
X920Y2205D01*
X908Y2187D01*
X906Y2178D01*
X990D01*
Y2222D01*
D02*
G37*
G36*
X5000Y2208D02*
X4978Y2205D01*
X4958Y2197D01*
X4941Y2184D01*
X4928Y2167D01*
X4920Y2147D01*
X4917Y2125D01*
X4919Y2112D01*
X4918Y2110D01*
X4903Y2095D01*
X4897Y2092D01*
X4890Y2094D01*
X4881D01*
Y2000D01*
Y1906D01*
X4890D01*
X4908Y1910D01*
X4924Y1920D01*
X4928Y1926D01*
X4950Y1933D01*
X4959Y1933D01*
X5050D01*
Y2059D01*
X5059Y2066D01*
X5072Y2083D01*
X5080Y2103D01*
X5083Y2125D01*
X5080Y2147D01*
X5072Y2167D01*
X5059Y2184D01*
X5042Y2197D01*
X5022Y2205D01*
X5000Y2208D01*
D02*
G37*
G36*
X4400Y2333D02*
X4378Y2330D01*
X4358Y2322D01*
X4341Y2309D01*
X4328Y2292D01*
X4320Y2272D01*
X4317Y2250D01*
X4320Y2228D01*
X4328Y2208D01*
X4341Y2191D01*
X4358Y2178D01*
X4367Y2174D01*
Y2084D01*
X4365Y2083D01*
X4342Y2070D01*
X4328Y2074D01*
X4324Y2080D01*
X4308Y2090D01*
X4290Y2094D01*
X4281D01*
Y2000D01*
Y1906D01*
X4290D01*
X4308Y1910D01*
X4324Y1920D01*
X4328Y1926D01*
X4350Y1933D01*
X4359Y1933D01*
X4450D01*
Y2067D01*
X4433D01*
Y2174D01*
X4442Y2178D01*
X4459Y2191D01*
X4472Y2208D01*
X4480Y2228D01*
X4483Y2250D01*
X4480Y2272D01*
X4472Y2292D01*
X4459Y2309D01*
X4442Y2322D01*
X4422Y2330D01*
X4400Y2333D01*
D02*
G37*
G36*
X5490Y2094D02*
X5481D01*
Y2013D01*
X5538D01*
Y2046D01*
X5534Y2064D01*
X5524Y2080D01*
X5508Y2090D01*
X5490Y2094D01*
D02*
G37*
G36*
X5456D02*
X5447D01*
X5429Y2090D01*
X5413Y2080D01*
X5403Y2064D01*
X5399Y2046D01*
Y2013D01*
X5456D01*
Y2094D01*
D02*
G37*
G36*
X4856D02*
X4847D01*
X4829Y2090D01*
X4813Y2080D01*
X4803Y2064D01*
X4799Y2046D01*
Y2013D01*
X4856D01*
Y2094D01*
D02*
G37*
G36*
X4256D02*
X4247D01*
X4229Y2090D01*
X4213Y2080D01*
X4203Y2064D01*
X4199Y2046D01*
Y2013D01*
X4256D01*
Y2094D01*
D02*
G37*
G36*
X875Y1975D02*
X813D01*
Y1923D01*
X875D01*
Y1975D01*
D02*
G37*
G36*
X787D02*
X725D01*
Y1923D01*
X787D01*
Y1975D01*
D02*
G37*
G36*
X4703Y2088D02*
X4660D01*
X4644Y2085D01*
X4630Y2076D01*
X4625Y2068D01*
X4600Y2067D01*
Y2067D01*
X4500D01*
Y1933D01*
X4600D01*
X4600Y1933D01*
X4625Y1932D01*
X4630Y1924D01*
X4644Y1915D01*
X4660Y1912D01*
X4703D01*
X4719Y1915D01*
X4733Y1924D01*
X4742Y1938D01*
X4745Y1954D01*
Y2046D01*
X4742Y2062D01*
X4733Y2076D01*
X4719Y2085D01*
X4703Y2088D01*
D02*
G37*
G36*
X4103D02*
X4060D01*
X4044Y2085D01*
X4030Y2076D01*
X4025Y2068D01*
X4000Y2067D01*
Y2067D01*
X3900D01*
Y1933D01*
X4000D01*
X4000Y1933D01*
X4025Y1932D01*
X4030Y1924D01*
X4044Y1915D01*
X4060Y1912D01*
X4103D01*
X4119Y1915D01*
X4133Y1924D01*
X4142Y1938D01*
X4145Y1954D01*
Y2046D01*
X4142Y2062D01*
X4133Y2076D01*
X4119Y2085D01*
X4103Y2088D01*
D02*
G37*
G36*
X4856Y1987D02*
X4799D01*
Y1954D01*
X4803Y1936D01*
X4813Y1920D01*
X4829Y1910D01*
X4847Y1906D01*
X4856D01*
Y1987D01*
D02*
G37*
G36*
X4256D02*
X4199D01*
Y1954D01*
X4203Y1936D01*
X4213Y1920D01*
X4229Y1910D01*
X4247Y1906D01*
X4256D01*
Y1987D01*
D02*
G37*
G36*
X329Y1936D02*
X267D01*
Y1848D01*
X429D01*
X427Y1861D01*
X417Y1886D01*
X401Y1907D01*
X380Y1923D01*
X355Y1933D01*
X329Y1936D01*
D02*
G37*
G36*
X241D02*
X179D01*
X153Y1933D01*
X128Y1923D01*
X107Y1907D01*
X91Y1886D01*
X81Y1861D01*
X79Y1848D01*
X241D01*
Y1936D01*
D02*
G37*
G36*
X429Y1822D02*
X267D01*
Y1734D01*
X329D01*
X355Y1737D01*
X380Y1747D01*
X401Y1763D01*
X417Y1784D01*
X427Y1809D01*
X429Y1822D01*
D02*
G37*
G36*
X241D02*
X79D01*
X81Y1809D01*
X91Y1784D01*
X107Y1763D01*
X128Y1747D01*
X153Y1737D01*
X179Y1734D01*
X241D01*
Y1822D01*
D02*
G37*
G36*
X5950Y1658D02*
X5928Y1655D01*
X5908Y1647D01*
X5907Y1646D01*
X5882Y1646D01*
Y1646D01*
X5768D01*
Y1504D01*
X5882D01*
Y1504D01*
X5907Y1504D01*
X5908Y1503D01*
X5928Y1495D01*
X5950Y1492D01*
X5972Y1495D01*
X5992Y1503D01*
X6009Y1516D01*
X6022Y1533D01*
X6030Y1553D01*
X6033Y1575D01*
X6030Y1597D01*
X6022Y1617D01*
X6009Y1634D01*
X5992Y1647D01*
X5972Y1655D01*
X5950Y1658D01*
D02*
G37*
G36*
X674Y1688D02*
X537D01*
Y1613D01*
X674D01*
Y1688D01*
D02*
G37*
G36*
X511D02*
X374D01*
Y1613D01*
X511D01*
Y1688D01*
D02*
G37*
G36*
X674Y1587D02*
X537D01*
Y1512D01*
X674D01*
Y1587D01*
D02*
G37*
G36*
X511D02*
X374D01*
Y1512D01*
X511D01*
Y1587D01*
D02*
G37*
G36*
X875Y1550D02*
X813D01*
Y1498D01*
X875D01*
Y1550D01*
D02*
G37*
G36*
X787D02*
X725D01*
Y1498D01*
X787D01*
Y1550D01*
D02*
G37*
G36*
X5950Y1458D02*
X5928Y1455D01*
X5908Y1447D01*
X5907Y1446D01*
X5882Y1446D01*
Y1446D01*
X5768D01*
Y1304D01*
X5882D01*
Y1304D01*
X5907Y1304D01*
X5908Y1303D01*
X5928Y1295D01*
X5950Y1292D01*
X5972Y1295D01*
X5992Y1303D01*
X6009Y1316D01*
X6022Y1333D01*
X6030Y1353D01*
X6033Y1375D01*
X6030Y1397D01*
X6022Y1417D01*
X6009Y1434D01*
X5992Y1447D01*
X5972Y1455D01*
X5950Y1458D01*
D02*
G37*
G36*
X875Y1472D02*
X800D01*
X725D01*
Y1433D01*
X725Y1420D01*
X722Y1396D01*
X669D01*
Y1432D01*
X379D01*
Y1268D01*
X669D01*
Y1304D01*
X730D01*
Y1290D01*
X870D01*
X875Y1282D01*
Y1282D01*
X975D01*
Y1418D01*
X900D01*
X875Y1420D01*
X875Y1443D01*
Y1472D01*
D02*
G37*
G36*
X254Y1556D02*
X233Y1553D01*
X214Y1545D01*
X197Y1532D01*
X184Y1515D01*
X176Y1496D01*
X173Y1475D01*
X176Y1454D01*
X184Y1435D01*
X197Y1418D01*
X214Y1405D01*
X233Y1397D01*
X254Y1394D01*
X275Y1397D01*
X294Y1405D01*
X311Y1418D01*
X324Y1435D01*
X332Y1454D01*
X335Y1475D01*
X332Y1496D01*
X324Y1515D01*
X311Y1532D01*
X294Y1545D01*
X275Y1553D01*
X254Y1556D01*
D02*
G37*
G36*
X5950Y1258D02*
X5928Y1255D01*
X5908Y1247D01*
X5907Y1246D01*
X5882Y1246D01*
Y1246D01*
X5768D01*
Y1104D01*
X5882D01*
Y1104D01*
X5907Y1104D01*
X5908Y1103D01*
X5928Y1095D01*
X5950Y1092D01*
X5972Y1095D01*
X5992Y1103D01*
X6009Y1116D01*
X6022Y1133D01*
X6030Y1153D01*
X6033Y1175D01*
X6030Y1197D01*
X6022Y1217D01*
X6009Y1234D01*
X5992Y1247D01*
X5972Y1255D01*
X5950Y1258D01*
D02*
G37*
G36*
Y1058D02*
X5928Y1055D01*
X5908Y1047D01*
X5907Y1046D01*
X5882Y1046D01*
Y1046D01*
X5768D01*
Y904D01*
X5882D01*
Y904D01*
X5907Y904D01*
X5908Y903D01*
X5928Y895D01*
X5950Y892D01*
X5972Y895D01*
X5992Y903D01*
X6009Y916D01*
X6022Y933D01*
X6030Y953D01*
X6033Y975D01*
X6030Y997D01*
X6022Y1017D01*
X6009Y1034D01*
X5992Y1047D01*
X5972Y1055D01*
X5950Y1058D01*
D02*
G37*
G36*
X669Y1232D02*
X379D01*
Y1068D01*
X669D01*
Y1104D01*
X722D01*
X725Y1080D01*
X725Y1067D01*
Y1028D01*
X875D01*
Y1057D01*
X875Y1080D01*
X900Y1082D01*
X975D01*
Y1218D01*
X875D01*
Y1218D01*
X870Y1210D01*
X730D01*
Y1196D01*
X669D01*
Y1232D01*
D02*
G37*
G36*
X875Y1002D02*
X813D01*
Y950D01*
X875D01*
Y1002D01*
D02*
G37*
G36*
X787D02*
X725D01*
Y950D01*
X787D01*
Y1002D01*
D02*
G37*
G36*
X254Y1106D02*
X233Y1103D01*
X214Y1095D01*
X197Y1082D01*
X184Y1065D01*
X176Y1046D01*
X173Y1025D01*
X176Y1004D01*
X184Y985D01*
X197Y968D01*
X214Y955D01*
X233Y947D01*
X254Y944D01*
X275Y947D01*
X294Y955D01*
X311Y968D01*
X324Y985D01*
X332Y1004D01*
X335Y1025D01*
X332Y1046D01*
X324Y1065D01*
X311Y1082D01*
X294Y1095D01*
X275Y1103D01*
X254Y1106D01*
D02*
G37*
G36*
X5303Y2088D02*
X5260D01*
X5244Y2085D01*
X5230Y2076D01*
X5225Y2068D01*
X5200Y2067D01*
Y2067D01*
X5100D01*
Y1933D01*
X5200D01*
X5200Y1933D01*
X5225Y1932D01*
X5230Y1924D01*
X5238Y1919D01*
X5240Y1895D01*
X5240Y1890D01*
Y1655D01*
Y1455D01*
Y1255D01*
Y1055D01*
Y855D01*
X5275D01*
Y788D01*
X5425D01*
X5575D01*
Y855D01*
X5610D01*
Y884D01*
X5621Y904D01*
X5735D01*
Y1046D01*
X5621D01*
X5610Y1066D01*
Y1084D01*
X5621Y1104D01*
X5735D01*
Y1246D01*
X5621D01*
X5610Y1266D01*
Y1284D01*
X5621Y1304D01*
X5735D01*
Y1446D01*
X5621D01*
X5610Y1466D01*
Y1484D01*
X5621Y1504D01*
X5735D01*
Y1646D01*
X5621D01*
X5610Y1666D01*
Y1895D01*
X5531D01*
X5523Y1920D01*
X5524Y1920D01*
X5534Y1936D01*
X5538Y1954D01*
Y1987D01*
X5399D01*
Y1954D01*
X5403Y1936D01*
X5413Y1920D01*
X5414Y1920D01*
X5406Y1895D01*
X5334D01*
X5327Y1920D01*
X5333Y1924D01*
X5342Y1938D01*
X5345Y1954D01*
Y2046D01*
X5342Y2062D01*
X5333Y2076D01*
X5319Y2085D01*
X5303Y2088D01*
D02*
G37*
G36*
X755Y798D02*
X713D01*
Y738D01*
X755D01*
Y798D01*
D02*
G37*
G36*
X669Y982D02*
X379D01*
Y818D01*
X478D01*
Y482D01*
X454D01*
Y368D01*
X596D01*
Y482D01*
X570D01*
Y818D01*
X632D01*
X645Y798D01*
X645Y793D01*
Y738D01*
X687D01*
Y798D01*
X682D01*
X669Y818D01*
X669Y823D01*
Y982D01*
D02*
G37*
G36*
X329Y766D02*
X267D01*
Y678D01*
X429D01*
X427Y691D01*
X417Y716D01*
X401Y737D01*
X380Y753D01*
X355Y763D01*
X329Y766D01*
D02*
G37*
G36*
X241D02*
X179D01*
X153Y763D01*
X128Y753D01*
X107Y737D01*
X91Y716D01*
X81Y691D01*
X79Y678D01*
X241D01*
Y766D01*
D02*
G37*
G36*
X6500Y1406D02*
X6470Y1403D01*
X6440Y1394D01*
X6413Y1380D01*
X6390Y1360D01*
X6370Y1337D01*
X6356Y1310D01*
X6347Y1280D01*
X6344Y1250D01*
X6347Y1220D01*
X6356Y1190D01*
X6370Y1163D01*
X6390Y1140D01*
X6413Y1120D01*
X6440Y1106D01*
X6468Y1098D01*
X6468Y1097D01*
X6464Y1026D01*
X6450Y956D01*
X6427Y888D01*
X6395Y824D01*
X6355Y764D01*
X6308Y710D01*
X6254Y663D01*
X6228Y646D01*
X5610D01*
Y695D01*
X5575D01*
Y762D01*
X5425D01*
X5275D01*
Y695D01*
X5240D01*
Y455D01*
X5275D01*
Y388D01*
X5425D01*
X5575D01*
Y455D01*
X5610D01*
Y504D01*
X6250D01*
X6266Y506D01*
X6268Y507D01*
X6288Y515D01*
X6288Y515D01*
X6350Y559D01*
X6408Y611D01*
X6459Y668D01*
X6504Y731D01*
X6541Y799D01*
X6571Y870D01*
X6592Y944D01*
X6605Y1020D01*
X6609Y1097D01*
X6607Y1137D01*
X6610Y1140D01*
X6630Y1163D01*
X6644Y1190D01*
X6653Y1220D01*
X6656Y1250D01*
X6653Y1280D01*
X6644Y1310D01*
X6630Y1337D01*
X6610Y1360D01*
X6587Y1380D01*
X6560Y1394D01*
X6530Y1403D01*
X6500Y1406D01*
D02*
G37*
G36*
X429Y652D02*
X267D01*
Y564D01*
X329D01*
X355Y567D01*
X380Y577D01*
X401Y593D01*
X417Y614D01*
X427Y639D01*
X429Y652D01*
D02*
G37*
G36*
X241D02*
X79D01*
X81Y639D01*
X91Y614D01*
X107Y593D01*
X128Y577D01*
X153Y567D01*
X179Y564D01*
X241D01*
Y652D01*
D02*
G37*
G36*
X5575Y362D02*
X5438D01*
Y290D01*
X5575D01*
Y362D01*
D02*
G37*
G36*
X5412D02*
X5275D01*
Y290D01*
X5412D01*
Y362D01*
D02*
G37*
G36*
X3298Y187D02*
X3213D01*
Y125D01*
X3298D01*
Y187D01*
D02*
G37*
G36*
X3187D02*
X3102D01*
Y125D01*
X3187D01*
Y187D01*
D02*
G37*
%LPD*%
G36*
X3165Y2196D02*
X3165Y2195D01*
X3162Y2175D01*
X3165Y2155D01*
X3172Y2137D01*
X3185Y2122D01*
X3200Y2109D01*
X3218Y2102D01*
X3238Y2099D01*
X3258Y2102D01*
X3276Y2109D01*
X3291Y2122D01*
X3304Y2137D01*
X3311Y2155D01*
X3313Y2167D01*
X3580D01*
Y2138D01*
X3575Y2115D01*
X3575Y2102D01*
Y2063D01*
X3650D01*
Y2050D01*
X3663D01*
Y1985D01*
X3699D01*
X3709Y1960D01*
X3650Y1900D01*
X3646Y1895D01*
X3290D01*
Y1867D01*
X3281Y1846D01*
X3167D01*
Y1704D01*
X3281D01*
X3290Y1683D01*
Y1667D01*
X3281Y1646D01*
X3167D01*
Y1504D01*
X3281D01*
X3290Y1483D01*
Y1466D01*
X3279Y1446D01*
X3165D01*
Y1304D01*
X3279D01*
X3290Y1284D01*
Y1268D01*
X3282Y1246D01*
X3168D01*
Y1104D01*
X3282D01*
X3290Y1082D01*
Y1067D01*
X3281Y1046D01*
X3167D01*
Y904D01*
X3281D01*
X3290Y883D01*
Y866D01*
X3279Y846D01*
X3165D01*
Y704D01*
X3279D01*
X3290Y684D01*
Y668D01*
X3282Y646D01*
X3168D01*
Y504D01*
X3282D01*
X3290Y482D01*
Y430D01*
X3108D01*
Y393D01*
X3071D01*
Y404D01*
X2929D01*
Y311D01*
X2904Y301D01*
X2892Y312D01*
X2878Y322D01*
X2860Y326D01*
X2679D01*
X2666Y351D01*
X2672Y358D01*
X2680Y378D01*
X2683Y400D01*
X2680Y422D01*
X2672Y442D01*
X2659Y459D01*
X2658Y459D01*
Y491D01*
X2659Y491D01*
X2672Y508D01*
X2680Y528D01*
X2683Y550D01*
X2680Y572D01*
X2672Y592D01*
X2659Y609D01*
X2642Y622D01*
X2637Y624D01*
Y651D01*
X2642Y653D01*
X2659Y666D01*
X2672Y683D01*
X2680Y703D01*
X2683Y725D01*
X2680Y747D01*
X2672Y767D01*
X2659Y784D01*
X2642Y797D01*
X2622Y805D01*
X2600Y808D01*
X2578Y805D01*
X2558Y797D01*
X2541Y784D01*
X2541Y783D01*
X2374D01*
X2367Y792D01*
X2359Y808D01*
X2361Y818D01*
Y842D01*
X2425D01*
X2438Y844D01*
X2448Y852D01*
X2489Y892D01*
X2524D01*
X2528Y883D01*
X2541Y866D01*
X2558Y853D01*
X2578Y845D01*
X2600Y842D01*
X2622Y845D01*
X2642Y853D01*
X2659Y866D01*
X2672Y883D01*
X2680Y903D01*
X2683Y925D01*
X2680Y947D01*
X2672Y967D01*
X2659Y984D01*
X2642Y997D01*
X2622Y1005D01*
X2600Y1008D01*
X2598Y1008D01*
X2578Y1025D01*
X2580Y1044D01*
X2588Y1049D01*
X2637Y1098D01*
X2720D01*
Y1204D01*
X2725Y1227D01*
X2725Y1240D01*
Y1280D01*
X2650D01*
Y1293D01*
X2637D01*
Y1358D01*
X2588D01*
X2568Y1371D01*
X2564Y1379D01*
X2563Y1386D01*
X2555Y1398D01*
X2563Y1409D01*
X2566Y1423D01*
X2563Y1436D01*
X2558Y1443D01*
X2559Y1443D01*
X2568Y1457D01*
X2571Y1473D01*
X2593Y1489D01*
X2731D01*
X2787Y1434D01*
Y880D01*
X2789Y867D01*
X2797Y857D01*
X3021Y632D01*
Y504D01*
X3135D01*
Y646D01*
X3101D01*
X3066Y681D01*
X3076Y704D01*
X3132D01*
Y846D01*
X3100D01*
X3098Y848D01*
X3066Y881D01*
X3076Y904D01*
X3133D01*
Y1046D01*
X3052D01*
X3018Y1080D01*
X3030Y1104D01*
X3135D01*
Y1246D01*
X3054D01*
X3021Y1279D01*
X3031Y1304D01*
X3132D01*
Y1446D01*
X3033D01*
Y1504D01*
X3133D01*
Y1646D01*
X3019D01*
Y1646D01*
X2996Y1636D01*
X2970Y1663D01*
X2979Y1689D01*
X2982Y1690D01*
X2997Y1696D01*
X3020Y1704D01*
X3019Y1704D01*
X3020Y1704D01*
X3133D01*
Y1846D01*
X3019D01*
X3019Y1846D01*
X2994Y1845D01*
X2982Y1850D01*
X2960Y1853D01*
X2938Y1850D01*
X2918Y1842D01*
X2901Y1829D01*
X2888Y1812D01*
X2880Y1792D01*
X2879Y1789D01*
X2853Y1780D01*
X2671Y1962D01*
X2660Y1969D01*
X2647Y1972D01*
X2281D01*
X2270Y1969D01*
X2268Y1969D01*
X2245Y1983D01*
Y1987D01*
X2250Y2010D01*
X2312D01*
Y2075D01*
X2325D01*
Y2088D01*
X2400D01*
Y2140D01*
X2400D01*
X2395Y2150D01*
Y2192D01*
X2660D01*
X2674Y2175D01*
X2677Y2155D01*
X2684Y2137D01*
X2697Y2122D01*
X2712Y2109D01*
X2730Y2102D01*
X2750Y2099D01*
X2770Y2102D01*
X2788Y2109D01*
X2803Y2122D01*
X2816Y2137D01*
X2823Y2155D01*
X2826Y2175D01*
X2823Y2195D01*
X2816Y2213D01*
X2803Y2228D01*
X2788Y2241D01*
X2785Y2242D01*
X2790Y2267D01*
X3094D01*
X3165Y2196D01*
D02*
G37*
G36*
X1725Y2107D02*
X1725Y2045D01*
X1730Y2022D01*
Y1915D01*
X1842D01*
Y1841D01*
X1825Y1819D01*
X1809Y1816D01*
X1796Y1807D01*
X1791Y1809D01*
X1789Y1810D01*
X1787Y1811D01*
X1778Y1815D01*
X1766Y1818D01*
X1628D01*
X1626Y1821D01*
X1610Y1832D01*
X1590Y1835D01*
X1505D01*
X1500Y1834D01*
X1481Y1848D01*
X1499Y1862D01*
X1505Y1861D01*
X1590D01*
X1610Y1864D01*
X1626Y1875D01*
X1637Y1892D01*
X1641Y1911D01*
X1637Y1931D01*
X1626Y1948D01*
X1610Y1959D01*
X1590Y1962D01*
X1505D01*
X1485Y1959D01*
X1469Y1948D01*
X1455Y1948D01*
X1445Y1974D01*
X1472Y2000D01*
X1485Y1991D01*
X1505Y1988D01*
X1590D01*
X1610Y1991D01*
X1626Y2002D01*
X1637Y2019D01*
X1641Y2039D01*
X1638Y2052D01*
X1698Y2112D01*
X1700Y2114D01*
X1725Y2107D01*
D02*
G37*
G36*
X1739Y1662D02*
X1742Y1649D01*
X1750Y1637D01*
X1761Y1630D01*
X1775Y1627D01*
X1789Y1630D01*
X1795Y1634D01*
X1796Y1633D01*
X1809Y1624D01*
X1812Y1624D01*
Y1720D01*
X1838D01*
Y1624D01*
X1841Y1624D01*
X1854Y1633D01*
X1855Y1634D01*
X1861Y1630D01*
X1875Y1627D01*
X1889Y1630D01*
X1895Y1634D01*
X1896Y1633D01*
X1909Y1624D01*
X1912Y1624D01*
Y1720D01*
X1938D01*
Y1624D01*
X1941Y1624D01*
X1954Y1633D01*
X1955Y1634D01*
X1961Y1630D01*
X1975Y1627D01*
X1989Y1630D01*
X1997Y1635D01*
X2010Y1630D01*
X2011Y1630D01*
X2015Y1629D01*
X2021Y1627D01*
X2028Y1614D01*
X2031Y1602D01*
X1934Y1506D01*
X1743D01*
X1721Y1523D01*
X1718Y1536D01*
X1710Y1548D01*
X1718Y1559D01*
X1721Y1573D01*
X1718Y1586D01*
X1710Y1598D01*
X1699Y1605D01*
X1685Y1608D01*
X1570D01*
X1557Y1606D01*
X1516D01*
X1458Y1664D01*
Y1726D01*
X1483Y1739D01*
X1485Y1737D01*
X1505Y1734D01*
X1590D01*
X1610Y1737D01*
X1626Y1748D01*
X1628Y1751D01*
X1739D01*
Y1662D01*
D02*
G37*
G36*
X2100Y1542D02*
X2100Y1540D01*
X2091Y1534D01*
X2078Y1517D01*
X2070Y1497D01*
X2067Y1475D01*
X2070Y1453D01*
X2078Y1433D01*
X2091Y1416D01*
X2108Y1403D01*
X2128Y1395D01*
X2150Y1392D01*
X2172Y1395D01*
X2172Y1395D01*
X2195Y1377D01*
X2194Y1373D01*
X2197Y1351D01*
X2205Y1331D01*
X2219Y1314D01*
X2236Y1300D01*
X2256Y1292D01*
X2277Y1289D01*
X2292Y1291D01*
X2317Y1276D01*
Y1163D01*
X2224D01*
X2139Y1248D01*
X2128Y1256D01*
X2116Y1258D01*
X1950D01*
X1937Y1256D01*
X1927Y1248D01*
X1836Y1158D01*
X1738D01*
X1726Y1173D01*
X1723Y1188D01*
X1714Y1202D01*
X1713Y1202D01*
X1718Y1209D01*
X1721Y1223D01*
X1718Y1236D01*
X1710Y1248D01*
X1718Y1259D01*
X1721Y1273D01*
X1718Y1286D01*
X1710Y1298D01*
X1718Y1309D01*
X1721Y1323D01*
X1718Y1336D01*
X1710Y1348D01*
X1718Y1359D01*
X1721Y1373D01*
X1718Y1386D01*
X1710Y1398D01*
X1718Y1409D01*
X1721Y1423D01*
X1743Y1439D01*
X1948D01*
X1960Y1442D01*
X1971Y1449D01*
X2074Y1552D01*
X2100Y1542D01*
D02*
G37*
G36*
X2187Y1107D02*
X2198Y1099D01*
X2211Y1097D01*
X2317D01*
X2319Y1087D01*
X2327Y1077D01*
X2354Y1049D01*
X2365Y1042D01*
X2368Y1035D01*
X2473D01*
Y1010D01*
X2376D01*
X2377Y1007D01*
X2386Y993D01*
X2399Y984D01*
X2415Y981D01*
X2463D01*
X2466Y956D01*
X2462Y956D01*
X2452Y948D01*
X2411Y908D01*
X2361D01*
Y932D01*
X2358Y946D01*
X2350Y958D01*
X2339Y965D01*
X2325Y968D01*
X2311Y965D01*
X2300Y958D01*
X2289Y965D01*
X2275Y968D01*
X2261Y965D01*
X2250Y958D01*
X2239Y965D01*
X2225Y968D01*
X2211Y965D01*
X2200Y958D01*
X2189Y965D01*
X2175Y968D01*
X2161Y965D01*
X2150Y958D01*
X2139Y965D01*
X2125Y968D01*
X2108Y990D01*
Y1000D01*
X2106Y1013D01*
X2105Y1013D01*
X2109Y1016D01*
X2122Y1033D01*
X2130Y1053D01*
X2133Y1075D01*
X2130Y1097D01*
X2122Y1117D01*
X2109Y1134D01*
X2092Y1147D01*
X2072Y1155D01*
X2050Y1158D01*
X2028Y1155D01*
X2008Y1147D01*
X1991Y1134D01*
X1978Y1117D01*
X1970Y1097D01*
X1967Y1075D01*
X1970Y1053D01*
X1978Y1033D01*
X1991Y1016D01*
X2008Y1003D01*
X2020Y998D01*
X2017Y972D01*
X2009Y971D01*
X1996Y962D01*
X1995Y961D01*
X1989Y965D01*
X1975Y968D01*
X1961Y965D01*
X1950Y958D01*
X1939Y965D01*
X1925Y968D01*
X1911Y965D01*
X1900Y958D01*
X1889Y965D01*
X1875Y968D01*
X1858Y990D01*
Y1093D01*
X1863Y1094D01*
X1873Y1102D01*
X1964Y1192D01*
X2102D01*
X2187Y1107D01*
D02*
G37*
G36*
X2111Y785D02*
X2125Y782D01*
X2142Y760D01*
Y700D01*
X2144Y687D01*
X2152Y677D01*
X2169Y659D01*
X2162Y631D01*
X2153Y628D01*
X2147Y630D01*
X2125Y633D01*
X2103Y630D01*
X2083Y622D01*
X2066Y609D01*
X2060Y601D01*
X2035Y609D01*
Y618D01*
X2025D01*
X2003Y625D01*
X2003Y643D01*
Y687D01*
X1938D01*
Y713D01*
X2003D01*
Y756D01*
X2025Y776D01*
X2027Y777D01*
X2041Y779D01*
X2054Y788D01*
X2055Y789D01*
X2061Y785D01*
X2075Y782D01*
X2089Y785D01*
X2100Y792D01*
X2111Y785D01*
D02*
G37*
G36*
X1739Y818D02*
X1742Y804D01*
X1744Y800D01*
X1737Y775D01*
X1737D01*
Y713D01*
X1802D01*
Y700D01*
X1815D01*
Y625D01*
X1825D01*
Y125D01*
X1825Y125D01*
X900D01*
Y224D01*
X930D01*
Y200D01*
X1185D01*
Y340D01*
X930D01*
Y316D01*
X900D01*
Y684D01*
X930D01*
Y660D01*
X1185D01*
Y800D01*
X1008D01*
Y875D01*
X1739D01*
Y818D01*
D02*
G37*
%LPC*%
G36*
X2400Y2062D02*
X2338D01*
Y2010D01*
X2400D01*
Y2062D01*
D02*
G37*
G36*
X3637Y2037D02*
X3575D01*
Y1985D01*
X3637D01*
Y2037D01*
D02*
G37*
G36*
X2725Y1358D02*
X2663D01*
Y1305D01*
X2725D01*
Y1358D01*
D02*
G37*
G36*
X1790Y687D02*
X1737D01*
Y625D01*
X1790D01*
Y687D01*
D02*
G37*
%LPD*%
D32*
X254Y1025D02*
D03*
Y1475D02*
D03*
D36*
X6250Y575D02*
G03*
X6525Y1225I-329J522D01*
G01*
X5425Y575D02*
X6250D01*
D37*
X4869Y2000D02*
D03*
X4681D02*
D03*
X5469D02*
D03*
X5281D02*
D03*
X4269D02*
D03*
X4081D02*
D03*
D38*
X4550D02*
D03*
X4400D02*
D03*
X5000D02*
D03*
X5150D02*
D03*
X3800D02*
D03*
X3950D02*
D03*
X700Y725D02*
D03*
X850D02*
D03*
X975Y950D02*
D03*
X1125D02*
D03*
X925Y1150D02*
D03*
X1075D02*
D03*
X925Y1350D02*
D03*
X1075D02*
D03*
X1375Y2350D02*
D03*
X1525D02*
D03*
X1250D02*
D03*
X1100D02*
D03*
X2225Y550D02*
D03*
X2375D02*
D03*
D39*
X3078Y575D02*
D03*
X3225D02*
D03*
X3075Y775D02*
D03*
X3222D02*
D03*
X3076Y975D02*
D03*
X3224D02*
D03*
X3078Y1175D02*
D03*
X3225D02*
D03*
X3075Y1375D02*
D03*
X3222D02*
D03*
X5678D02*
D03*
X5825D02*
D03*
X5678Y1575D02*
D03*
X5825D02*
D03*
X5678Y1175D02*
D03*
X5825D02*
D03*
X5678Y975D02*
D03*
X5825D02*
D03*
X3076Y1575D02*
D03*
X3224D02*
D03*
Y1775D02*
D03*
X3076D02*
D03*
D40*
X1400Y1375D02*
D03*
Y1225D02*
D03*
X2200Y375D02*
D03*
Y225D02*
D03*
X1950Y2125D02*
D03*
Y1975D02*
D03*
D41*
X1250Y1225D02*
D03*
Y1360D02*
D03*
X2650Y1293D02*
D03*
Y1157D02*
D03*
X2325Y2210D02*
D03*
Y2075D02*
D03*
X800Y1015D02*
D03*
Y1150D02*
D03*
Y1485D02*
D03*
Y1350D02*
D03*
X1800Y2110D02*
D03*
Y1975D02*
D03*
X2175Y2110D02*
D03*
Y1975D02*
D03*
X3650Y2185D02*
D03*
Y2050D02*
D03*
X800Y1910D02*
D03*
Y1775D02*
D03*
D42*
X3475Y1775D02*
D03*
Y1575D02*
D03*
Y1375D02*
D03*
Y1175D02*
D03*
Y975D02*
D03*
Y775D02*
D03*
Y575D02*
D03*
Y375D02*
D03*
X5425Y1775D02*
D03*
Y1575D02*
D03*
Y1375D02*
D03*
Y1175D02*
D03*
Y975D02*
D03*
Y775D02*
D03*
Y575D02*
D03*
Y375D02*
D03*
D43*
X3200Y200D02*
D03*
Y360D02*
D03*
D44*
X3000Y347D02*
D03*
Y200D02*
D03*
X525Y278D02*
D03*
Y425D02*
D03*
D45*
X2350Y185D02*
D03*
Y375D02*
D03*
X2550Y280D02*
D03*
D46*
X1950Y255D02*
D03*
Y500D02*
D03*
X775Y520D02*
D03*
Y275D02*
D03*
D47*
X1938Y700D02*
D03*
X1802D02*
D03*
X1207Y1500D02*
D03*
X1343D02*
D03*
D48*
X1057Y730D02*
D03*
Y500D02*
D03*
Y270D02*
D03*
D49*
X1642Y500D02*
D03*
D50*
X1002Y2166D02*
D03*
Y2039D02*
D03*
Y1911D02*
D03*
Y1784D02*
D03*
X1548Y2166D02*
D03*
Y2039D02*
D03*
Y1911D02*
D03*
Y1784D02*
D03*
D51*
X1627Y1573D02*
D03*
Y1523D02*
D03*
Y1473D02*
D03*
Y1423D02*
D03*
Y1373D02*
D03*
Y1323D02*
D03*
Y1273D02*
D03*
Y1223D02*
D03*
Y1173D02*
D03*
Y1123D02*
D03*
Y1073D02*
D03*
Y1023D02*
D03*
X2473D02*
D03*
Y1073D02*
D03*
Y1123D02*
D03*
Y1173D02*
D03*
Y1223D02*
D03*
Y1273D02*
D03*
Y1323D02*
D03*
Y1373D02*
D03*
Y1423D02*
D03*
Y1473D02*
D03*
Y1523D02*
D03*
Y1573D02*
D03*
D52*
X1775Y875D02*
D03*
X1825D02*
D03*
X1875D02*
D03*
X1925D02*
D03*
X1975D02*
D03*
X2025D02*
D03*
X2075D02*
D03*
X2125D02*
D03*
X2175D02*
D03*
X2225D02*
D03*
X2275D02*
D03*
X2325D02*
D03*
Y1720D02*
D03*
X2275D02*
D03*
X2225D02*
D03*
X2175D02*
D03*
X2125D02*
D03*
X2075D02*
D03*
X2025D02*
D03*
X1975D02*
D03*
X1925D02*
D03*
X1875D02*
D03*
X1825D02*
D03*
X1775D02*
D03*
D53*
X524Y900D02*
D03*
Y1150D02*
D03*
Y1350D02*
D03*
Y1600D02*
D03*
D54*
X2598Y1473D02*
X2600Y1475D01*
X3060Y1770D02*
X3077Y1787D01*
X5000Y2125D02*
X5000Y2125D01*
X2396Y1427D02*
X2473D01*
X2075Y875D02*
X2075Y875D01*
X2300Y1525D02*
X2370Y1455D01*
Y1454D02*
Y1455D01*
Y1454D02*
X2396Y1427D01*
X2473Y1423D02*
Y1427D01*
X2277Y1373D02*
X2473D01*
X5420Y370D02*
X5425Y375D01*
D55*
X2025Y700D02*
Y875D01*
X1938Y700D02*
X2025D01*
X1800Y700D02*
X1825Y725D01*
X2820Y880D02*
Y1447D01*
Y880D02*
X3078Y622D01*
X2745Y1523D02*
X2820Y1447D01*
X2865Y1035D02*
Y1466D01*
Y1035D02*
X3075Y825D01*
X2759Y1573D02*
X2865Y1466D01*
X3075Y775D02*
Y825D01*
X2325Y1790D02*
X2605D01*
X2910Y1141D02*
Y1485D01*
Y1141D02*
X3076Y975D01*
X2605Y1790D02*
X2910Y1485D01*
X2955Y1298D02*
Y1503D01*
Y1298D02*
X3078Y1175D01*
X2615Y1843D02*
X2955Y1503D01*
X3045Y1375D02*
X3075D01*
X3000Y1420D02*
X3045Y1375D01*
X3000Y1420D02*
Y1522D01*
X2629Y1893D02*
X3000Y1522D01*
X2350Y1130D02*
Y1300D01*
Y1100D02*
Y1130D01*
X2211D02*
X2350D01*
X2116Y1225D02*
X2211Y1130D01*
X2565Y1073D02*
X2650Y1157D01*
X2473Y1073D02*
X2565D01*
X2473Y1473D02*
X2598D01*
X1950Y1225D02*
X2116D01*
X1983Y1000D02*
X2025Y957D01*
X1925Y1000D02*
X1983D01*
X2025Y875D02*
Y957D01*
X2050Y1025D02*
Y1075D01*
Y1025D02*
X2075Y1000D01*
X1850Y1125D02*
X1950Y1225D01*
X1825Y1125D02*
X1850D01*
X2125Y1720D02*
X2127Y1717D01*
Y1643D02*
Y1717D01*
Y1643D02*
X2150Y1620D01*
Y1475D02*
Y1620D01*
X4400Y2000D02*
Y2250D01*
X5000Y2000D02*
Y2125D01*
X1825Y875D02*
Y1125D01*
X2350Y1100D02*
X2377Y1073D01*
X2075Y875D02*
Y1000D01*
X2314Y1843D02*
X2615D01*
X2300Y1893D02*
X2629D01*
X2281Y1938D02*
X2647D01*
X2960Y1770D02*
X2985Y1793D01*
X3011Y1575D02*
X3076D01*
X2647Y1938D02*
X3011Y1575D01*
X2473Y1573D02*
X2759D01*
X2473Y1523D02*
X2745D01*
X1370Y1473D02*
X1527D01*
X3078Y575D02*
Y622D01*
X3447Y347D02*
X3475Y375D01*
X975Y730D02*
Y950D01*
X2473Y1023D02*
X2623D01*
X2330D02*
X2473D01*
X2550Y750D02*
X2575Y725D01*
X2300Y750D02*
X2550D01*
X2325Y1720D02*
Y1790D01*
X2275Y1805D02*
X2314Y1843D01*
X2275Y1720D02*
Y1805D01*
X2175Y1832D02*
X2281Y1938D01*
X2175Y1720D02*
Y1832D01*
X2175Y1900D02*
Y1975D01*
X2075Y1800D02*
X2175Y1900D01*
X2075Y1720D02*
Y1800D01*
X2575Y725D02*
X2600D01*
X2450Y700D02*
X2600Y550D01*
X2500Y400D02*
X2600D01*
X2475Y925D02*
X2600D01*
X2425Y875D02*
X2475Y925D01*
X2325Y875D02*
X2425D01*
X2250Y700D02*
X2450D01*
X2450Y450D02*
X2500Y400D01*
X2450Y450D02*
Y625D01*
X2425Y650D02*
X2450Y625D01*
X2225Y650D02*
X2425D01*
X3475Y575D02*
X3475Y575D01*
X3475Y775D02*
X3475Y775D01*
X3475Y975D02*
X3475Y975D01*
X3475Y1175D02*
X3475Y1175D01*
X3475Y1375D02*
X3475Y1375D01*
X2225Y1818D02*
X2300Y1893D01*
X2225Y1720D02*
Y1818D01*
X1630Y1125D02*
X1825D01*
X2377Y1073D02*
X2473D01*
X1627Y1473D02*
X1948D01*
X2075Y1600D02*
Y1720D01*
X3208Y2200D02*
X3635D01*
X1825Y725D02*
Y875D01*
X2373Y1323D02*
X2473D01*
X1627Y1173D02*
X1748D01*
X2154Y2225D02*
X2325D01*
X2738Y2162D02*
Y2188D01*
X2325Y2225D02*
X2700D01*
X3635Y2200D02*
X3650Y2185D01*
X3108Y2300D02*
X3208Y2200D01*
X1825Y1720D02*
Y1825D01*
X1800Y1850D02*
X1825Y1825D01*
X1750Y1850D02*
X1800D01*
X1675Y1925D02*
X1750Y1850D01*
X1675Y1925D02*
Y2050D01*
X1735Y2110D01*
X1800D01*
X1650Y2350D02*
X1675Y2325D01*
Y2136D02*
Y2325D01*
X1578Y2039D02*
X1675Y2136D01*
X1548Y2039D02*
X1578D01*
X2275Y2100D02*
X2300D01*
X1300Y500D02*
Y691D01*
X1178Y812D02*
X1300Y691D01*
X1162Y812D02*
X1178D01*
X1125Y850D02*
X1162Y812D01*
X1125Y850D02*
Y950D01*
X2700Y2225D02*
X2738Y2188D01*
X2165Y2300D02*
X3108D01*
X2325Y2210D02*
Y2225D01*
X2075Y2146D02*
X2154Y2225D01*
X2075Y1913D02*
Y2146D01*
X2025Y1863D02*
X2075Y1913D01*
X2025Y1720D02*
Y1863D01*
X2030Y2165D02*
X2165Y2300D01*
X2030Y1932D02*
Y2165D01*
X1975Y1882D02*
X2005Y1912D01*
X2011D02*
X2030Y1932D01*
X2005Y1912D02*
X2011D01*
X1948Y1473D02*
X2075Y1600D01*
X1251Y1225D02*
X1326Y1300D01*
X1250Y1225D02*
X1251D01*
X1326Y1300D02*
X1450D01*
X1473Y1323D01*
X1548Y1223D02*
X1627D01*
X1425Y1100D02*
X1548Y1223D01*
X1100Y1100D02*
X1425D01*
X1075Y1125D02*
X1100Y1100D01*
X1075Y1125D02*
Y1150D01*
X3475Y1575D02*
X3475Y1575D01*
X5425Y975D02*
X5425Y975D01*
X5425Y1375D02*
X5425Y1375D01*
X3475Y1775D02*
X3475Y1775D01*
X1300Y500D02*
X1642D01*
X1057D02*
X1300D01*
X850Y725D02*
X855Y730D01*
X524Y426D02*
X525Y425D01*
X2275Y775D02*
Y875D01*
Y775D02*
X2300Y750D01*
X2225Y725D02*
X2250Y700D01*
X2175Y700D02*
X2225Y650D01*
Y725D02*
Y875D01*
X2175Y700D02*
Y875D01*
X1075Y1350D02*
X1150Y1275D01*
Y1175D02*
Y1275D01*
Y1175D02*
X1175Y1150D01*
X1950Y500D02*
X2000D01*
X2200Y375D02*
X2350D01*
X2375Y400D01*
Y550D01*
X2125D02*
X2225D01*
X1975Y1720D02*
Y1882D01*
X1775Y1720D02*
Y1775D01*
X1766Y1784D02*
X1775Y1775D01*
X1548Y1784D02*
X1766D01*
X1875Y1975D02*
X1950D01*
X1800D02*
X1875D01*
Y1720D02*
Y1975D01*
X1627Y1123D02*
X1630Y1125D01*
X2350Y1300D02*
X2373Y1323D01*
X1435Y2166D02*
X1548D01*
X1375Y2225D02*
X1435Y2166D01*
X1375Y2225D02*
Y2350D01*
X1250D02*
X1375D01*
X1525D02*
X1650D01*
X1425Y1875D02*
X1461Y1911D01*
X1425Y1650D02*
Y1875D01*
Y1650D02*
X1502Y1573D01*
X1375Y1950D02*
X1464Y2039D01*
X1375Y1625D02*
Y1950D01*
Y1625D02*
X1477Y1523D01*
X1502Y1573D02*
X1627D01*
X1461Y1911D02*
X1548D01*
X1464Y2039D02*
X1548D01*
X1477Y1523D02*
X1627D01*
X1527Y1423D02*
Y1473D01*
Y1423D02*
X1627D01*
X1527Y1473D02*
X1627D01*
X1473Y1323D02*
X1627D01*
X1350Y1150D02*
X1400Y1200D01*
X1523Y1273D02*
X1627D01*
X1475Y1225D02*
X1523Y1273D01*
X1400Y1225D02*
X1475D01*
X1400Y1375D02*
X1402Y1373D01*
X1627D01*
X1175Y1150D02*
X1350D01*
X800D02*
X925D01*
X800Y1350D02*
X925D01*
D56*
X1800Y500D02*
X1950D01*
X1642D02*
X1800D01*
Y700D01*
X3000Y347D02*
X3447D01*
X2960Y1770D02*
X3060D01*
X1343Y1500D02*
X1370Y1473D01*
X1340Y1502D02*
X1343Y1500D01*
X650Y270D02*
X1057D01*
X1340Y1502D02*
Y1569D01*
X1275Y1634D02*
X1340Y1569D01*
X2940Y200D02*
X3000D01*
X2860Y280D02*
X2940Y200D01*
X2550Y280D02*
X2860D01*
X3225Y575D02*
X3475D01*
X3222Y775D02*
X3475D01*
X3224Y975D02*
X3475D01*
X3225Y1175D02*
X3475D01*
X3222Y1375D02*
X3475D01*
X2300Y2100D02*
X2325Y2075D01*
X2265Y2110D02*
X2275Y2100D01*
X2175Y2110D02*
X2265D01*
X1207Y1402D02*
Y1500D01*
Y1402D02*
X1250Y1360D01*
X1125Y1784D02*
X1275Y1634D01*
X1950Y2125D02*
Y2225D01*
X5825Y975D02*
X5950D01*
X5825Y1175D02*
X5950D01*
X5825Y1575D02*
X5950D01*
X5825Y1375D02*
X5950D01*
X3224Y1575D02*
X3475D01*
X3224Y1775D02*
X3475D01*
X5425Y975D02*
X5678D01*
X5425Y1175D02*
X5678D01*
X5425Y1375D02*
X5678D01*
X5425Y1575D02*
X5678D01*
X533Y270D02*
X650D01*
X855Y730D02*
X975D01*
X525Y278D02*
X533Y270D01*
X524Y426D02*
Y900D01*
X2310Y225D02*
X2350Y185D01*
X2200Y225D02*
X2310D01*
X2125D02*
X2200D01*
X2100Y250D02*
X2125Y225D01*
X2100Y250D02*
Y400D01*
X2000Y500D02*
X2100Y400D01*
X1002Y1784D02*
X1125D01*
X800Y1775D02*
X810Y1784D01*
X1002D01*
X1125Y2050D02*
Y2275D01*
Y1784D02*
Y2050D01*
X1114Y2039D02*
X1125Y2050D01*
X1002Y2039D02*
X1114D01*
X1100Y2300D02*
X1125Y2275D01*
X1100Y2300D02*
Y2350D01*
X524Y1150D02*
X800D01*
X524Y1350D02*
X800D01*
D57*
X3475Y375D02*
X3650D01*
X3675Y400D01*
Y1875D01*
X3800Y2000D01*
X5150D02*
X5281D01*
X4550D02*
X4681D01*
X3950D02*
X4081D01*
D58*
X5250Y370D02*
X5420D01*
X5275Y775D02*
X5425D01*
X6250Y575D02*
X6250D01*
D59*
X7200Y-200D02*
D03*
X-200D02*
D03*
X7200Y2700D02*
D03*
X-200D02*
D03*
D60*
X2960Y1770D02*
D03*
X2060Y700D02*
D03*
X2250Y1030D02*
D03*
X2050Y1075D02*
D03*
X2150Y1475D02*
D03*
X5000Y2125D02*
D03*
X2277Y1373D02*
D03*
X2300Y1525D02*
D03*
X2950Y480D02*
D03*
X2600Y725D02*
D03*
Y925D02*
D03*
X2600Y550D02*
D03*
Y400D02*
D03*
X5600D02*
D03*
X3580Y190D02*
D03*
X1640Y1670D02*
D03*
X2650Y1425D02*
D03*
X650Y525D02*
D03*
X800Y875D02*
D03*
X2250Y1225D02*
D03*
X1875Y1300D02*
D03*
X3500Y2100D02*
D03*
X5100Y350D02*
D03*
Y650D02*
D03*
X2575Y2125D02*
D03*
X3400Y2300D02*
D03*
X3075Y2175D02*
D03*
X2900D02*
D03*
X2825Y100D02*
D03*
X2550D02*
D03*
X2100D02*
D03*
X500D02*
D03*
X200D02*
D03*
Y400D02*
D03*
Y2100D02*
D03*
X500D02*
D03*
X800D02*
D03*
Y2300D02*
D03*
X500D02*
D03*
X200D02*
D03*
X6500Y350D02*
D03*
X6750Y450D02*
D03*
X6900Y700D02*
D03*
Y550D02*
D03*
X4150Y2250D02*
D03*
X4400D02*
D03*
X4650D02*
D03*
X4900D02*
D03*
X5150D02*
D03*
X5400D02*
D03*
X5650D02*
D03*
X5900D02*
D03*
Y2000D02*
D03*
X6150Y2250D02*
D03*
X6400D02*
D03*
X6650D02*
D03*
X6900D02*
D03*
Y2000D02*
D03*
X6650D02*
D03*
X6400D02*
D03*
X6150D02*
D03*
X6900Y1750D02*
D03*
X6650D02*
D03*
X6400D02*
D03*
X6150D02*
D03*
X5200Y750D02*
D03*
Y450D02*
D03*
Y600D02*
D03*
Y300D02*
D03*
X5600Y750D02*
D03*
X6600Y700D02*
D03*
X6500Y550D02*
D03*
X6350Y450D02*
D03*
X6200Y400D02*
D03*
X6050D02*
D03*
X5900D02*
D03*
X5750D02*
D03*
X6200Y750D02*
D03*
X6050D02*
D03*
X5900D02*
D03*
X5750D02*
D03*
X6900Y200D02*
D03*
X6600D02*
D03*
X6300D02*
D03*
X6000D02*
D03*
X5700D02*
D03*
X3380Y190D02*
D03*
X5400Y200D02*
D03*
X5100D02*
D03*
X4700D02*
D03*
X4300D02*
D03*
X3900D02*
D03*
X5100Y500D02*
D03*
X4700D02*
D03*
X4300D02*
D03*
X3900D02*
D03*
X5100Y800D02*
D03*
X4700D02*
D03*
X4300D02*
D03*
X3900D02*
D03*
X5100Y1100D02*
D03*
X4700D02*
D03*
X4300D02*
D03*
X3900D02*
D03*
X5100Y1400D02*
D03*
X4700D02*
D03*
X4300D02*
D03*
X3900D02*
D03*
X1475Y1000D02*
D03*
X1275Y1634D02*
D03*
X1950Y2225D02*
D03*
X5950Y975D02*
D03*
Y1175D02*
D03*
Y1375D02*
D03*
Y1575D02*
D03*
X650Y270D02*
D03*
X2125Y550D02*
D03*
D61*
X6755Y995D02*
D03*
X6245Y1505D02*
D03*
X6755D02*
D03*
X6245Y995D02*
D03*
X6500Y1250D02*
D03*
D62*
X3238Y2175D02*
D03*
X2750D02*
D03*
D63*
X254Y665D02*
D03*
Y1835D02*
D03*
M02*
