M48
;Layer_Color=9474304
;FILE_FORMAT=4:2
METRIC,LZ
;TYPE=PLATED
T1F00S00C0.40
T2F00S00C0.70
T4F00S00C1.50
;TYPE=NON_PLATED
T5F00S00C1.20
%
T01
X0069Y0002
X0066
X0063
X006
X0057
X0054
X0052Y0003
X0051Y0002
X0047
X0043
X0039
X0034
X0032Y0001
X00255
X0021
X0005
X0002
X00065Y00027
Y000525
X0008Y000875
X001475Y001
X0019Y001275
X00225
X002125Y0015
X00164Y00167
X001275Y001634
X0008Y0021
Y0023
X0005
Y0021
X0002
Y0023
X00195Y002225
X00245Y002
X0026
X0028
X0027Y001675
X00265Y00119
X002125Y00055
X0002Y0004
X0032Y0005
Y0007
Y0009
X003Y000875
Y001075
Y00125
Y001425
Y002
X0032
X0031Y0021
X0029
X0035
X0034Y0023
X00415Y00225
X0044
X00465
X0049
X00515
X0054
X00565
X0059
Y002
X00615
Y00225
X0064
X00665
Y002
X0064
Y00175
X00665
X00615
X00595Y001575
Y001375
Y001175
Y000975
X0059Y00075
X00575
X0056
Y0004
X00575
X0059
X00605
X0062
X00635Y00045
X0065Y00055
Y00035
X00675Y00045
X0066Y0007
X0062Y00075
X00605
X0052
Y0006
X0051Y00065
Y0005
Y00035
X0052Y00045
X0051Y0008
Y0011
Y0014
X0047
Y0011
Y0008
Y0005
X0043
Y0008
Y0011
Y0014
X0039
Y0011
Y0008
Y0005
X0069Y00055
Y0007
Y00175
Y002
Y00225
T02
X00275Y002175
X003238
T04
X006245Y000995
X006755
Y001505
X006245
X0065Y00125
T05
X000254Y001025
Y001475
M30
