M48
;Layer_Color=9474304
;FILE_FORMAT=4:2
METRIC,LZ
;TYPE=PLATED
T1F00S00C0.40
T2F00S00C0.50
T3F00S00C0.70
T5F00S00C1.50
;TYPE=NON_PLATED
T6F00S00C1.20
%
T01
X0072Y-0002
X0069Y0002
X0066
X0063
X006
X0057
X0054
X0052Y0003
X0051Y0002
X0047
X0043
X0039
X00358Y00019
X00338
X002825Y0001
X00255
X0021
X0005
X0002
X00065Y00027
X-0002Y-0002
X0002Y0004
X00065Y000525
X0008Y000875
X001475Y001
X00205Y001075
X00225Y00103
Y001225
X002277Y001373
X0023Y001525
X00215Y001475
X001875Y0013
X00164Y00167
X001275Y001634
X0008Y0021
Y0023
X0005
Y0021
X0002
Y0023
X-0002Y0027
X00195Y002225
X002575Y002125
X00265Y001425
X0026Y000925
Y000725
X0026Y00055
Y0004
X002125Y00055
X00206Y0007
X0039Y0008
Y0005
X0043
Y0008
Y0011
Y0014
X0047
Y0011
Y0008
Y0005
X0051
Y00035
X0052Y00045
Y0006
X0051Y00065
Y0008
X0052Y00075
X0056
X00575
X0059
X00605
X0062
Y0004
X00605
X0059
X00575
X0056
X00635Y00045
X0065Y00055
Y00035
X00675Y00045
X0066Y0007
X00595Y000975
Y001175
Y001375
Y001575
X00615Y00175
Y002
X0059
Y00225
X00565
X0054
X00515
X0049
X005Y002125
X00465Y00225
X0044
X00415
X0035Y0021
X0034Y0023
X003075Y002175
X0029
X0039Y0014
Y0011
X0051
Y0014
X0064Y00175
Y002
Y00225
X00615
X00665
Y002
Y00175
X0069
Y002
Y00225
X0072Y0027
X0069Y0007
Y00055
T02
X00295Y00048
X00296Y00177
T03
X00275Y002175
X003238
T05
X006245Y000995
X006755
Y001505
X006245
X0065Y00125
T06
X000254Y001025
Y001475
M30
